<?xml version="1.0" encoding="utf-8" standalone="no"?>
<!DOCTYPE svg PUBLIC "-//W3C//DTD SVG 1.1//EN"
  "http://www.w3.org/Graphics/SVG/1.1/DTD/svg11.dtd">
<svg height="432pt" version="1.1" viewBox="0 0 864 432" width="864pt" xmlns="http://www.w3.org/2000/svg" xmlns:xlink="http://www.w3.org/1999/xlink">
 <metadata>
  <rdf:RDF xmlns:cc="http://creativecommons.org/ns#" xmlns:dc="http://purl.org/dc/elements/1.1/" xmlns:rdf="http://www.w3.org/1999/02/22-rdf-syntax-ns#">
   <cc:Work>
    <dc:type rdf:resource="http://purl.org/dc/dcmitype/StillImage"/>
    <dc:date>2021-06-17T21:06:46.031199</dc:date>
    <dc:format>image/svg+xml</dc:format>
    <dc:creator>
     <cc:Agent>
      <dc:title>Matplotlib v3.4.2, https://matplotlib.org/</dc:title>
     </cc:Agent>
    </dc:creator>
   </cc:Work>
  </rdf:RDF>
 </metadata>
 <defs>
  <style type="text/css">*{stroke-linecap:butt;stroke-linejoin:round;}</style>
 </defs>
 <g id="figure_1">
  <g id="patch_1">
   <path d="M 0 432 
L 864 432 
L 864 0 
L 0 0 
z
" style="fill:#ffffff;"/>
  </g>
  <g id="axes_1">
   <g id="patch_2">
    <path d="M 44.57 345.771773 
L 853.2 345.771773 
L 853.2 26.88 
L 44.57 26.88 
z
" style="fill:#ffffff;"/>
   </g>
   <g id="matplotlib.axis_1">
    <g id="xtick_1">
     <g id="line2d_1">
      <defs>
       <path d="M 0 0 
L 0 3.5 
" id="m07980122e3" style="stroke:#000000;stroke-width:0.8;"/>
      </defs>
      <g>
       <use style="stroke:#000000;stroke-width:0.8;" x="81.325909" xlink:href="#m07980122e3" y="345.771773"/>
      </g>
     </g>
     <g id="text_1">
      <!-- 14:39:47.087 -->
      <g transform="translate(59.526028 405.646787)rotate(-45)scale(0.1 -0.1)">
       <defs>
        <path d="M 794 531 
L 1825 531 
L 1825 4091 
L 703 3866 
L 703 4441 
L 1819 4666 
L 2450 4666 
L 2450 531 
L 3481 531 
L 3481 0 
L 794 0 
L 794 531 
z
" id="DejaVuSans-31" transform="scale(0.015625)"/>
        <path d="M 2419 4116 
L 825 1625 
L 2419 1625 
L 2419 4116 
z
M 2253 4666 
L 3047 4666 
L 3047 1625 
L 3713 1625 
L 3713 1100 
L 3047 1100 
L 3047 0 
L 2419 0 
L 2419 1100 
L 313 1100 
L 313 1709 
L 2253 4666 
z
" id="DejaVuSans-34" transform="scale(0.015625)"/>
        <path d="M 750 794 
L 1409 794 
L 1409 0 
L 750 0 
L 750 794 
z
M 750 3309 
L 1409 3309 
L 1409 2516 
L 750 2516 
L 750 3309 
z
" id="DejaVuSans-3a" transform="scale(0.015625)"/>
        <path d="M 2597 2516 
Q 3050 2419 3304 2112 
Q 3559 1806 3559 1356 
Q 3559 666 3084 287 
Q 2609 -91 1734 -91 
Q 1441 -91 1130 -33 
Q 819 25 488 141 
L 488 750 
Q 750 597 1062 519 
Q 1375 441 1716 441 
Q 2309 441 2620 675 
Q 2931 909 2931 1356 
Q 2931 1769 2642 2001 
Q 2353 2234 1838 2234 
L 1294 2234 
L 1294 2753 
L 1863 2753 
Q 2328 2753 2575 2939 
Q 2822 3125 2822 3475 
Q 2822 3834 2567 4026 
Q 2313 4219 1838 4219 
Q 1578 4219 1281 4162 
Q 984 4106 628 3988 
L 628 4550 
Q 988 4650 1302 4700 
Q 1616 4750 1894 4750 
Q 2613 4750 3031 4423 
Q 3450 4097 3450 3541 
Q 3450 3153 3228 2886 
Q 3006 2619 2597 2516 
z
" id="DejaVuSans-33" transform="scale(0.015625)"/>
        <path d="M 703 97 
L 703 672 
Q 941 559 1184 500 
Q 1428 441 1663 441 
Q 2288 441 2617 861 
Q 2947 1281 2994 2138 
Q 2813 1869 2534 1725 
Q 2256 1581 1919 1581 
Q 1219 1581 811 2004 
Q 403 2428 403 3163 
Q 403 3881 828 4315 
Q 1253 4750 1959 4750 
Q 2769 4750 3195 4129 
Q 3622 3509 3622 2328 
Q 3622 1225 3098 567 
Q 2575 -91 1691 -91 
Q 1453 -91 1209 -44 
Q 966 3 703 97 
z
M 1959 2075 
Q 2384 2075 2632 2365 
Q 2881 2656 2881 3163 
Q 2881 3666 2632 3958 
Q 2384 4250 1959 4250 
Q 1534 4250 1286 3958 
Q 1038 3666 1038 3163 
Q 1038 2656 1286 2365 
Q 1534 2075 1959 2075 
z
" id="DejaVuSans-39" transform="scale(0.015625)"/>
        <path d="M 525 4666 
L 3525 4666 
L 3525 4397 
L 1831 0 
L 1172 0 
L 2766 4134 
L 525 4134 
L 525 4666 
z
" id="DejaVuSans-37" transform="scale(0.015625)"/>
        <path d="M 684 794 
L 1344 794 
L 1344 0 
L 684 0 
L 684 794 
z
" id="DejaVuSans-2e" transform="scale(0.015625)"/>
        <path d="M 2034 4250 
Q 1547 4250 1301 3770 
Q 1056 3291 1056 2328 
Q 1056 1369 1301 889 
Q 1547 409 2034 409 
Q 2525 409 2770 889 
Q 3016 1369 3016 2328 
Q 3016 3291 2770 3770 
Q 2525 4250 2034 4250 
z
M 2034 4750 
Q 2819 4750 3233 4129 
Q 3647 3509 3647 2328 
Q 3647 1150 3233 529 
Q 2819 -91 2034 -91 
Q 1250 -91 836 529 
Q 422 1150 422 2328 
Q 422 3509 836 4129 
Q 1250 4750 2034 4750 
z
" id="DejaVuSans-30" transform="scale(0.015625)"/>
        <path d="M 2034 2216 
Q 1584 2216 1326 1975 
Q 1069 1734 1069 1313 
Q 1069 891 1326 650 
Q 1584 409 2034 409 
Q 2484 409 2743 651 
Q 3003 894 3003 1313 
Q 3003 1734 2745 1975 
Q 2488 2216 2034 2216 
z
M 1403 2484 
Q 997 2584 770 2862 
Q 544 3141 544 3541 
Q 544 4100 942 4425 
Q 1341 4750 2034 4750 
Q 2731 4750 3128 4425 
Q 3525 4100 3525 3541 
Q 3525 3141 3298 2862 
Q 3072 2584 2669 2484 
Q 3125 2378 3379 2068 
Q 3634 1759 3634 1313 
Q 3634 634 3220 271 
Q 2806 -91 2034 -91 
Q 1263 -91 848 271 
Q 434 634 434 1313 
Q 434 1759 690 2068 
Q 947 2378 1403 2484 
z
M 1172 3481 
Q 1172 3119 1398 2916 
Q 1625 2713 2034 2713 
Q 2441 2713 2670 2916 
Q 2900 3119 2900 3481 
Q 2900 3844 2670 4047 
Q 2441 4250 2034 4250 
Q 1625 4250 1398 4047 
Q 1172 3844 1172 3481 
z
" id="DejaVuSans-38" transform="scale(0.015625)"/>
       </defs>
       <use xlink:href="#DejaVuSans-31"/>
       <use x="63.623047" xlink:href="#DejaVuSans-34"/>
       <use x="127.246094" xlink:href="#DejaVuSans-3a"/>
       <use x="160.9375" xlink:href="#DejaVuSans-33"/>
       <use x="224.560547" xlink:href="#DejaVuSans-39"/>
       <use x="288.183594" xlink:href="#DejaVuSans-3a"/>
       <use x="321.875" xlink:href="#DejaVuSans-34"/>
       <use x="385.498047" xlink:href="#DejaVuSans-37"/>
       <use x="449.121094" xlink:href="#DejaVuSans-2e"/>
       <use x="480.908203" xlink:href="#DejaVuSans-30"/>
       <use x="544.53125" xlink:href="#DejaVuSans-38"/>
       <use x="608.154297" xlink:href="#DejaVuSans-37"/>
      </g>
     </g>
    </g>
    <g id="xtick_2">
     <g id="line2d_2">
      <g>
       <use style="stroke:#000000;stroke-width:0.8;" x="193.773627" xlink:href="#m07980122e3" y="345.771773"/>
      </g>
     </g>
     <g id="text_2">
      <!-- 17:27:16.445 -->
      <g transform="translate(171.973745 405.646787)rotate(-45)scale(0.1 -0.1)">
       <defs>
        <path d="M 1228 531 
L 3431 531 
L 3431 0 
L 469 0 
L 469 531 
Q 828 903 1448 1529 
Q 2069 2156 2228 2338 
Q 2531 2678 2651 2914 
Q 2772 3150 2772 3378 
Q 2772 3750 2511 3984 
Q 2250 4219 1831 4219 
Q 1534 4219 1204 4116 
Q 875 4013 500 3803 
L 500 4441 
Q 881 4594 1212 4672 
Q 1544 4750 1819 4750 
Q 2544 4750 2975 4387 
Q 3406 4025 3406 3419 
Q 3406 3131 3298 2873 
Q 3191 2616 2906 2266 
Q 2828 2175 2409 1742 
Q 1991 1309 1228 531 
z
" id="DejaVuSans-32" transform="scale(0.015625)"/>
        <path d="M 2113 2584 
Q 1688 2584 1439 2293 
Q 1191 2003 1191 1497 
Q 1191 994 1439 701 
Q 1688 409 2113 409 
Q 2538 409 2786 701 
Q 3034 994 3034 1497 
Q 3034 2003 2786 2293 
Q 2538 2584 2113 2584 
z
M 3366 4563 
L 3366 3988 
Q 3128 4100 2886 4159 
Q 2644 4219 2406 4219 
Q 1781 4219 1451 3797 
Q 1122 3375 1075 2522 
Q 1259 2794 1537 2939 
Q 1816 3084 2150 3084 
Q 2853 3084 3261 2657 
Q 3669 2231 3669 1497 
Q 3669 778 3244 343 
Q 2819 -91 2113 -91 
Q 1303 -91 875 529 
Q 447 1150 447 2328 
Q 447 3434 972 4092 
Q 1497 4750 2381 4750 
Q 2619 4750 2861 4703 
Q 3103 4656 3366 4563 
z
" id="DejaVuSans-36" transform="scale(0.015625)"/>
        <path d="M 691 4666 
L 3169 4666 
L 3169 4134 
L 1269 4134 
L 1269 2991 
Q 1406 3038 1543 3061 
Q 1681 3084 1819 3084 
Q 2600 3084 3056 2656 
Q 3513 2228 3513 1497 
Q 3513 744 3044 326 
Q 2575 -91 1722 -91 
Q 1428 -91 1123 -41 
Q 819 9 494 109 
L 494 744 
Q 775 591 1075 516 
Q 1375 441 1709 441 
Q 2250 441 2565 725 
Q 2881 1009 2881 1497 
Q 2881 1984 2565 2268 
Q 2250 2553 1709 2553 
Q 1456 2553 1204 2497 
Q 953 2441 691 2322 
L 691 4666 
z
" id="DejaVuSans-35" transform="scale(0.015625)"/>
       </defs>
       <use xlink:href="#DejaVuSans-31"/>
       <use x="63.623047" xlink:href="#DejaVuSans-37"/>
       <use x="127.246094" xlink:href="#DejaVuSans-3a"/>
       <use x="160.9375" xlink:href="#DejaVuSans-32"/>
       <use x="224.560547" xlink:href="#DejaVuSans-37"/>
       <use x="288.183594" xlink:href="#DejaVuSans-3a"/>
       <use x="321.875" xlink:href="#DejaVuSans-31"/>
       <use x="385.498047" xlink:href="#DejaVuSans-36"/>
       <use x="449.121094" xlink:href="#DejaVuSans-2e"/>
       <use x="480.908203" xlink:href="#DejaVuSans-34"/>
       <use x="544.53125" xlink:href="#DejaVuSans-34"/>
       <use x="608.154297" xlink:href="#DejaVuSans-35"/>
      </g>
     </g>
    </g>
    <g id="xtick_3">
     <g id="line2d_3">
      <g>
       <use style="stroke:#000000;stroke-width:0.8;" x="306.221344" xlink:href="#m07980122e3" y="345.771773"/>
      </g>
     </g>
     <g id="text_3">
      <!-- 20:14:00.832 -->
      <g transform="translate(284.421463 405.646787)rotate(-45)scale(0.1 -0.1)">
       <use xlink:href="#DejaVuSans-32"/>
       <use x="63.623047" xlink:href="#DejaVuSans-30"/>
       <use x="127.246094" xlink:href="#DejaVuSans-3a"/>
       <use x="160.9375" xlink:href="#DejaVuSans-31"/>
       <use x="224.560547" xlink:href="#DejaVuSans-34"/>
       <use x="288.183594" xlink:href="#DejaVuSans-3a"/>
       <use x="321.875" xlink:href="#DejaVuSans-30"/>
       <use x="385.498047" xlink:href="#DejaVuSans-30"/>
       <use x="449.121094" xlink:href="#DejaVuSans-2e"/>
       <use x="480.908203" xlink:href="#DejaVuSans-38"/>
       <use x="544.53125" xlink:href="#DejaVuSans-33"/>
       <use x="608.154297" xlink:href="#DejaVuSans-32"/>
      </g>
     </g>
    </g>
    <g id="xtick_4">
     <g id="line2d_4">
      <g>
       <use style="stroke:#000000;stroke-width:0.8;" x="418.669061" xlink:href="#m07980122e3" y="345.771773"/>
      </g>
     </g>
     <g id="text_4">
      <!-- 23:20:18.578 -->
      <g transform="translate(396.86918 405.646787)rotate(-45)scale(0.1 -0.1)">
       <use xlink:href="#DejaVuSans-32"/>
       <use x="63.623047" xlink:href="#DejaVuSans-33"/>
       <use x="127.246094" xlink:href="#DejaVuSans-3a"/>
       <use x="160.9375" xlink:href="#DejaVuSans-32"/>
       <use x="224.560547" xlink:href="#DejaVuSans-30"/>
       <use x="288.183594" xlink:href="#DejaVuSans-3a"/>
       <use x="321.875" xlink:href="#DejaVuSans-31"/>
       <use x="385.498047" xlink:href="#DejaVuSans-38"/>
       <use x="449.121094" xlink:href="#DejaVuSans-2e"/>
       <use x="480.908203" xlink:href="#DejaVuSans-35"/>
       <use x="544.53125" xlink:href="#DejaVuSans-37"/>
       <use x="608.154297" xlink:href="#DejaVuSans-38"/>
      </g>
     </g>
    </g>
    <g id="xtick_5">
     <g id="line2d_5">
      <g>
       <use style="stroke:#000000;stroke-width:0.8;" x="531.116779" xlink:href="#m07980122e3" y="345.771773"/>
      </g>
     </g>
     <g id="text_5">
      <!-- 02:43:27.814 -->
      <g transform="translate(509.316898 405.646787)rotate(-45)scale(0.1 -0.1)">
       <use xlink:href="#DejaVuSans-30"/>
       <use x="63.623047" xlink:href="#DejaVuSans-32"/>
       <use x="127.246094" xlink:href="#DejaVuSans-3a"/>
       <use x="160.9375" xlink:href="#DejaVuSans-34"/>
       <use x="224.560547" xlink:href="#DejaVuSans-33"/>
       <use x="288.183594" xlink:href="#DejaVuSans-3a"/>
       <use x="321.875" xlink:href="#DejaVuSans-32"/>
       <use x="385.498047" xlink:href="#DejaVuSans-37"/>
       <use x="449.121094" xlink:href="#DejaVuSans-2e"/>
       <use x="480.908203" xlink:href="#DejaVuSans-38"/>
       <use x="544.53125" xlink:href="#DejaVuSans-31"/>
       <use x="608.154297" xlink:href="#DejaVuSans-34"/>
      </g>
     </g>
    </g>
    <g id="xtick_6">
     <g id="line2d_6">
      <g>
       <use style="stroke:#000000;stroke-width:0.8;" x="643.564496" xlink:href="#m07980122e3" y="345.771773"/>
      </g>
     </g>
     <g id="text_6">
      <!-- 06:09:00.209 -->
      <g transform="translate(621.764615 405.646787)rotate(-45)scale(0.1 -0.1)">
       <use xlink:href="#DejaVuSans-30"/>
       <use x="63.623047" xlink:href="#DejaVuSans-36"/>
       <use x="127.246094" xlink:href="#DejaVuSans-3a"/>
       <use x="160.9375" xlink:href="#DejaVuSans-30"/>
       <use x="224.560547" xlink:href="#DejaVuSans-39"/>
       <use x="288.183594" xlink:href="#DejaVuSans-3a"/>
       <use x="321.875" xlink:href="#DejaVuSans-30"/>
       <use x="385.498047" xlink:href="#DejaVuSans-30"/>
       <use x="449.121094" xlink:href="#DejaVuSans-2e"/>
       <use x="480.908203" xlink:href="#DejaVuSans-32"/>
       <use x="544.53125" xlink:href="#DejaVuSans-30"/>
       <use x="608.154297" xlink:href="#DejaVuSans-39"/>
      </g>
     </g>
    </g>
    <g id="xtick_7">
     <g id="line2d_7">
      <g>
       <use style="stroke:#000000;stroke-width:0.8;" x="756.012214" xlink:href="#m07980122e3" y="345.771773"/>
      </g>
     </g>
     <g id="text_7">
      <!-- 09:36:05.012 -->
      <g transform="translate(734.212333 405.646787)rotate(-45)scale(0.1 -0.1)">
       <use xlink:href="#DejaVuSans-30"/>
       <use x="63.623047" xlink:href="#DejaVuSans-39"/>
       <use x="127.246094" xlink:href="#DejaVuSans-3a"/>
       <use x="160.9375" xlink:href="#DejaVuSans-33"/>
       <use x="224.560547" xlink:href="#DejaVuSans-36"/>
       <use x="288.183594" xlink:href="#DejaVuSans-3a"/>
       <use x="321.875" xlink:href="#DejaVuSans-30"/>
       <use x="385.498047" xlink:href="#DejaVuSans-35"/>
       <use x="449.121094" xlink:href="#DejaVuSans-2e"/>
       <use x="480.908203" xlink:href="#DejaVuSans-30"/>
       <use x="544.53125" xlink:href="#DejaVuSans-31"/>
       <use x="608.154297" xlink:href="#DejaVuSans-32"/>
      </g>
     </g>
    </g>
    <g id="text_8">
     <!-- Time -->
     <g transform="translate(436.651406 418.715786)scale(0.1 -0.1)">
      <defs>
       <path d="M -19 4666 
L 3928 4666 
L 3928 4134 
L 2272 4134 
L 2272 0 
L 1638 0 
L 1638 4134 
L -19 4134 
L -19 4666 
z
" id="DejaVuSans-54" transform="scale(0.015625)"/>
       <path d="M 603 3500 
L 1178 3500 
L 1178 0 
L 603 0 
L 603 3500 
z
M 603 4863 
L 1178 4863 
L 1178 4134 
L 603 4134 
L 603 4863 
z
" id="DejaVuSans-69" transform="scale(0.015625)"/>
       <path d="M 3328 2828 
Q 3544 3216 3844 3400 
Q 4144 3584 4550 3584 
Q 5097 3584 5394 3201 
Q 5691 2819 5691 2113 
L 5691 0 
L 5113 0 
L 5113 2094 
Q 5113 2597 4934 2840 
Q 4756 3084 4391 3084 
Q 3944 3084 3684 2787 
Q 3425 2491 3425 1978 
L 3425 0 
L 2847 0 
L 2847 2094 
Q 2847 2600 2669 2842 
Q 2491 3084 2119 3084 
Q 1678 3084 1418 2786 
Q 1159 2488 1159 1978 
L 1159 0 
L 581 0 
L 581 3500 
L 1159 3500 
L 1159 2956 
Q 1356 3278 1631 3431 
Q 1906 3584 2284 3584 
Q 2666 3584 2933 3390 
Q 3200 3197 3328 2828 
z
" id="DejaVuSans-6d" transform="scale(0.015625)"/>
       <path d="M 3597 1894 
L 3597 1613 
L 953 1613 
Q 991 1019 1311 708 
Q 1631 397 2203 397 
Q 2534 397 2845 478 
Q 3156 559 3463 722 
L 3463 178 
Q 3153 47 2828 -22 
Q 2503 -91 2169 -91 
Q 1331 -91 842 396 
Q 353 884 353 1716 
Q 353 2575 817 3079 
Q 1281 3584 2069 3584 
Q 2775 3584 3186 3129 
Q 3597 2675 3597 1894 
z
M 3022 2063 
Q 3016 2534 2758 2815 
Q 2500 3097 2075 3097 
Q 1594 3097 1305 2825 
Q 1016 2553 972 2059 
L 3022 2063 
z
" id="DejaVuSans-65" transform="scale(0.015625)"/>
      </defs>
      <use xlink:href="#DejaVuSans-54"/>
      <use x="57.958984" xlink:href="#DejaVuSans-69"/>
      <use x="85.742188" xlink:href="#DejaVuSans-6d"/>
      <use x="183.154297" xlink:href="#DejaVuSans-65"/>
     </g>
    </g>
   </g>
   <g id="matplotlib.axis_2">
    <g id="ytick_1">
     <g id="line2d_8">
      <defs>
       <path d="M 0 0 
L -3.5 0 
" id="m3c1f24b824" style="stroke:#000000;stroke-width:0.8;"/>
      </defs>
      <g>
       <use style="stroke:#000000;stroke-width:0.8;" x="44.57" xlink:href="#m3c1f24b824" y="345.771773"/>
      </g>
     </g>
     <g id="text_9">
      <!-- 0 -->
      <g transform="translate(31.2075 349.570992)scale(0.1 -0.1)">
       <use xlink:href="#DejaVuSans-30"/>
      </g>
     </g>
    </g>
    <g id="ytick_2">
     <g id="line2d_9">
      <g>
       <use style="stroke:#000000;stroke-width:0.8;" x="44.57" xlink:href="#m3c1f24b824" y="305.910301"/>
      </g>
     </g>
     <g id="text_10">
      <!-- 5 -->
      <g transform="translate(31.2075 309.70952)scale(0.1 -0.1)">
       <use xlink:href="#DejaVuSans-35"/>
      </g>
     </g>
    </g>
    <g id="ytick_3">
     <g id="line2d_10">
      <g>
       <use style="stroke:#000000;stroke-width:0.8;" x="44.57" xlink:href="#m3c1f24b824" y="266.04883"/>
      </g>
     </g>
     <g id="text_11">
      <!-- 10 -->
      <g transform="translate(24.845 269.848048)scale(0.1 -0.1)">
       <use xlink:href="#DejaVuSans-31"/>
       <use x="63.623047" xlink:href="#DejaVuSans-30"/>
      </g>
     </g>
    </g>
    <g id="ytick_4">
     <g id="line2d_11">
      <g>
       <use style="stroke:#000000;stroke-width:0.8;" x="44.57" xlink:href="#m3c1f24b824" y="226.187358"/>
      </g>
     </g>
     <g id="text_12">
      <!-- 15 -->
      <g transform="translate(24.845 229.986577)scale(0.1 -0.1)">
       <use xlink:href="#DejaVuSans-31"/>
       <use x="63.623047" xlink:href="#DejaVuSans-35"/>
      </g>
     </g>
    </g>
    <g id="ytick_5">
     <g id="line2d_12">
      <g>
       <use style="stroke:#000000;stroke-width:0.8;" x="44.57" xlink:href="#m3c1f24b824" y="186.325886"/>
      </g>
     </g>
     <g id="text_13">
      <!-- 20 -->
      <g transform="translate(24.845 190.125105)scale(0.1 -0.1)">
       <use xlink:href="#DejaVuSans-32"/>
       <use x="63.623047" xlink:href="#DejaVuSans-30"/>
      </g>
     </g>
    </g>
    <g id="ytick_6">
     <g id="line2d_13">
      <g>
       <use style="stroke:#000000;stroke-width:0.8;" x="44.57" xlink:href="#m3c1f24b824" y="146.464415"/>
      </g>
     </g>
     <g id="text_14">
      <!-- 25 -->
      <g transform="translate(24.845 150.263634)scale(0.1 -0.1)">
       <use xlink:href="#DejaVuSans-32"/>
       <use x="63.623047" xlink:href="#DejaVuSans-35"/>
      </g>
     </g>
    </g>
    <g id="ytick_7">
     <g id="line2d_14">
      <g>
       <use style="stroke:#000000;stroke-width:0.8;" x="44.57" xlink:href="#m3c1f24b824" y="106.602943"/>
      </g>
     </g>
     <g id="text_15">
      <!-- 30 -->
      <g transform="translate(24.845 110.402162)scale(0.1 -0.1)">
       <use xlink:href="#DejaVuSans-33"/>
       <use x="63.623047" xlink:href="#DejaVuSans-30"/>
      </g>
     </g>
    </g>
    <g id="ytick_8">
     <g id="line2d_15">
      <g>
       <use style="stroke:#000000;stroke-width:0.8;" x="44.57" xlink:href="#m3c1f24b824" y="66.741472"/>
      </g>
     </g>
     <g id="text_16">
      <!-- 35 -->
      <g transform="translate(24.845 70.54069)scale(0.1 -0.1)">
       <use xlink:href="#DejaVuSans-33"/>
       <use x="63.623047" xlink:href="#DejaVuSans-35"/>
      </g>
     </g>
    </g>
    <g id="ytick_9">
     <g id="line2d_16">
      <g>
       <use style="stroke:#000000;stroke-width:0.8;" x="44.57" xlink:href="#m3c1f24b824" y="26.88"/>
      </g>
     </g>
     <g id="text_17">
      <!-- 40 -->
      <g transform="translate(24.845 30.679219)scale(0.1 -0.1)">
       <use xlink:href="#DejaVuSans-34"/>
       <use x="63.623047" xlink:href="#DejaVuSans-30"/>
      </g>
     </g>
    </g>
    <g id="text_18">
     <!-- Temperature [degC] -->
     <g transform="translate(18.765312 236.402449)rotate(-90)scale(0.1 -0.1)">
      <defs>
       <path d="M 1159 525 
L 1159 -1331 
L 581 -1331 
L 581 3500 
L 1159 3500 
L 1159 2969 
Q 1341 3281 1617 3432 
Q 1894 3584 2278 3584 
Q 2916 3584 3314 3078 
Q 3713 2572 3713 1747 
Q 3713 922 3314 415 
Q 2916 -91 2278 -91 
Q 1894 -91 1617 61 
Q 1341 213 1159 525 
z
M 3116 1747 
Q 3116 2381 2855 2742 
Q 2594 3103 2138 3103 
Q 1681 3103 1420 2742 
Q 1159 2381 1159 1747 
Q 1159 1113 1420 752 
Q 1681 391 2138 391 
Q 2594 391 2855 752 
Q 3116 1113 3116 1747 
z
" id="DejaVuSans-70" transform="scale(0.015625)"/>
       <path d="M 2631 2963 
Q 2534 3019 2420 3045 
Q 2306 3072 2169 3072 
Q 1681 3072 1420 2755 
Q 1159 2438 1159 1844 
L 1159 0 
L 581 0 
L 581 3500 
L 1159 3500 
L 1159 2956 
Q 1341 3275 1631 3429 
Q 1922 3584 2338 3584 
Q 2397 3584 2469 3576 
Q 2541 3569 2628 3553 
L 2631 2963 
z
" id="DejaVuSans-72" transform="scale(0.015625)"/>
       <path d="M 2194 1759 
Q 1497 1759 1228 1600 
Q 959 1441 959 1056 
Q 959 750 1161 570 
Q 1363 391 1709 391 
Q 2188 391 2477 730 
Q 2766 1069 2766 1631 
L 2766 1759 
L 2194 1759 
z
M 3341 1997 
L 3341 0 
L 2766 0 
L 2766 531 
Q 2569 213 2275 61 
Q 1981 -91 1556 -91 
Q 1019 -91 701 211 
Q 384 513 384 1019 
Q 384 1609 779 1909 
Q 1175 2209 1959 2209 
L 2766 2209 
L 2766 2266 
Q 2766 2663 2505 2880 
Q 2244 3097 1772 3097 
Q 1472 3097 1187 3025 
Q 903 2953 641 2809 
L 641 3341 
Q 956 3463 1253 3523 
Q 1550 3584 1831 3584 
Q 2591 3584 2966 3190 
Q 3341 2797 3341 1997 
z
" id="DejaVuSans-61" transform="scale(0.015625)"/>
       <path d="M 1172 4494 
L 1172 3500 
L 2356 3500 
L 2356 3053 
L 1172 3053 
L 1172 1153 
Q 1172 725 1289 603 
Q 1406 481 1766 481 
L 2356 481 
L 2356 0 
L 1766 0 
Q 1100 0 847 248 
Q 594 497 594 1153 
L 594 3053 
L 172 3053 
L 172 3500 
L 594 3500 
L 594 4494 
L 1172 4494 
z
" id="DejaVuSans-74" transform="scale(0.015625)"/>
       <path d="M 544 1381 
L 544 3500 
L 1119 3500 
L 1119 1403 
Q 1119 906 1312 657 
Q 1506 409 1894 409 
Q 2359 409 2629 706 
Q 2900 1003 2900 1516 
L 2900 3500 
L 3475 3500 
L 3475 0 
L 2900 0 
L 2900 538 
Q 2691 219 2414 64 
Q 2138 -91 1772 -91 
Q 1169 -91 856 284 
Q 544 659 544 1381 
z
M 1991 3584 
L 1991 3584 
z
" id="DejaVuSans-75" transform="scale(0.015625)"/>
       <path id="DejaVuSans-20" transform="scale(0.015625)"/>
       <path d="M 550 4863 
L 1875 4863 
L 1875 4416 
L 1125 4416 
L 1125 -397 
L 1875 -397 
L 1875 -844 
L 550 -844 
L 550 4863 
z
" id="DejaVuSans-5b" transform="scale(0.015625)"/>
       <path d="M 2906 2969 
L 2906 4863 
L 3481 4863 
L 3481 0 
L 2906 0 
L 2906 525 
Q 2725 213 2448 61 
Q 2172 -91 1784 -91 
Q 1150 -91 751 415 
Q 353 922 353 1747 
Q 353 2572 751 3078 
Q 1150 3584 1784 3584 
Q 2172 3584 2448 3432 
Q 2725 3281 2906 2969 
z
M 947 1747 
Q 947 1113 1208 752 
Q 1469 391 1925 391 
Q 2381 391 2643 752 
Q 2906 1113 2906 1747 
Q 2906 2381 2643 2742 
Q 2381 3103 1925 3103 
Q 1469 3103 1208 2742 
Q 947 2381 947 1747 
z
" id="DejaVuSans-64" transform="scale(0.015625)"/>
       <path d="M 2906 1791 
Q 2906 2416 2648 2759 
Q 2391 3103 1925 3103 
Q 1463 3103 1205 2759 
Q 947 2416 947 1791 
Q 947 1169 1205 825 
Q 1463 481 1925 481 
Q 2391 481 2648 825 
Q 2906 1169 2906 1791 
z
M 3481 434 
Q 3481 -459 3084 -895 
Q 2688 -1331 1869 -1331 
Q 1566 -1331 1297 -1286 
Q 1028 -1241 775 -1147 
L 775 -588 
Q 1028 -725 1275 -790 
Q 1522 -856 1778 -856 
Q 2344 -856 2625 -561 
Q 2906 -266 2906 331 
L 2906 616 
Q 2728 306 2450 153 
Q 2172 0 1784 0 
Q 1141 0 747 490 
Q 353 981 353 1791 
Q 353 2603 747 3093 
Q 1141 3584 1784 3584 
Q 2172 3584 2450 3431 
Q 2728 3278 2906 2969 
L 2906 3500 
L 3481 3500 
L 3481 434 
z
" id="DejaVuSans-67" transform="scale(0.015625)"/>
       <path d="M 4122 4306 
L 4122 3641 
Q 3803 3938 3442 4084 
Q 3081 4231 2675 4231 
Q 1875 4231 1450 3742 
Q 1025 3253 1025 2328 
Q 1025 1406 1450 917 
Q 1875 428 2675 428 
Q 3081 428 3442 575 
Q 3803 722 4122 1019 
L 4122 359 
Q 3791 134 3420 21 
Q 3050 -91 2638 -91 
Q 1578 -91 968 557 
Q 359 1206 359 2328 
Q 359 3453 968 4101 
Q 1578 4750 2638 4750 
Q 3056 4750 3426 4639 
Q 3797 4528 4122 4306 
z
" id="DejaVuSans-43" transform="scale(0.015625)"/>
       <path d="M 1947 4863 
L 1947 -844 
L 622 -844 
L 622 -397 
L 1369 -397 
L 1369 4416 
L 622 4416 
L 622 4863 
L 1947 4863 
z
" id="DejaVuSans-5d" transform="scale(0.015625)"/>
      </defs>
      <use xlink:href="#DejaVuSans-54"/>
      <use x="44.083984" xlink:href="#DejaVuSans-65"/>
      <use x="105.607422" xlink:href="#DejaVuSans-6d"/>
      <use x="203.019531" xlink:href="#DejaVuSans-70"/>
      <use x="266.496094" xlink:href="#DejaVuSans-65"/>
      <use x="328.019531" xlink:href="#DejaVuSans-72"/>
      <use x="369.132812" xlink:href="#DejaVuSans-61"/>
      <use x="430.412109" xlink:href="#DejaVuSans-74"/>
      <use x="469.621094" xlink:href="#DejaVuSans-75"/>
      <use x="533" xlink:href="#DejaVuSans-72"/>
      <use x="571.863281" xlink:href="#DejaVuSans-65"/>
      <use x="633.386719" xlink:href="#DejaVuSans-20"/>
      <use x="665.173828" xlink:href="#DejaVuSans-5b"/>
      <use x="704.1875" xlink:href="#DejaVuSans-64"/>
      <use x="767.664062" xlink:href="#DejaVuSans-65"/>
      <use x="829.1875" xlink:href="#DejaVuSans-67"/>
      <use x="892.664062" xlink:href="#DejaVuSans-43"/>
      <use x="962.488281" xlink:href="#DejaVuSans-5d"/>
     </g>
    </g>
   </g>
   <g id="line2d_17">
    <path clip-path="url(#pb65efe388c)" d="M 81.325909 125.73645 
L 82.352332 125.73645 
L 82.463655 128.128146 
L 82.46388 128.128146 
L 82.476024 125.73645 
L 82.574978 128.128146 
L 83.374707 128.128146 
L 83.48603 129.722597 
L 83.502897 129.722597 
L 83.545627 128.128146 
L 83.613995 129.722597 
L 84.830455 129.722597 
L 84.892301 132.114293 
L 84.941553 129.722597 
L 85.041631 129.722597 
L 85.15273 132.114293 
L 85.244937 129.722597 
L 85.263828 132.114293 
L 85.269451 132.114293 
L 85.380774 129.722597 
L 85.396966 129.722597 
L 85.508289 132.114293 
L 85.535727 132.114293 
L 85.64705 129.722597 
L 85.696977 129.722597 
L 85.707097 132.114293 
L 85.808075 129.722597 
L 86.689215 129.722597 
L 86.776025 128.128146 
L 86.800314 129.722597 
L 86.800988 129.722597 
L 86.912312 128.128146 
L 87.674033 128.128146 
L 87.785356 125.73645 
L 87.791203 125.73645 
L 87.877788 128.128146 
L 87.902301 125.73645 
L 89.356025 125.73645 
L 89.467349 128.128146 
L 89.95852 128.128146 
L 90.069844 129.722597 
L 90.500518 129.722597 
L 90.611842 132.114293 
L 91.289002 132.114293 
L 91.400325 133.708744 
L 92.262349 133.708744 
L 92.373672 136.10044 
L 92.384243 136.10044 
L 92.396837 133.708744 
L 92.495341 136.10044 
L 93.615995 136.10044 
L 93.726643 137.694891 
L 93.727093 136.10044 
L 93.739013 136.10044 
L 93.850336 137.694891 
L 93.8744 137.694891 
L 93.886769 136.10044 
L 93.985498 137.694891 
L 95.340268 137.694891 
L 95.352188 140.086587 
L 95.451366 137.694891 
L 95.672214 137.694891 
L 95.782413 140.086587 
L 95.783312 137.694891 
L 95.795007 137.694891 
L 95.90543 140.086587 
L 95.906105 137.694891 
L 95.9178 137.694891 
L 96.029123 140.086587 
L 96.041267 140.086587 
L 96.114583 137.694891 
L 96.152366 140.086587 
L 96.200718 140.086587 
L 96.262564 137.694891 
L 96.311816 140.086587 
L 96.417517 140.086587 
L 96.425389 137.694891 
L 96.528616 140.086587 
L 96.536712 140.086587 
L 96.648035 137.694891 
L 96.655232 137.694891 
L 96.664228 140.086587 
L 96.76633 137.694891 
L 100.39097 137.694891 
L 100.502293 140.086587 
L 102.054072 140.086587 
L 102.152801 142.478268 
L 102.16517 140.086587 
L 102.202053 140.086587 
L 102.313376 142.478268 
L 102.374772 142.478268 
L 102.386692 140.086587 
L 102.485871 142.478268 
L 107.259276 142.478268 
L 107.271196 140.086587 
L 107.370375 142.478268 
L 107.41333 142.478268 
L 107.518581 140.086587 
L 107.524428 142.478268 
L 107.5305 142.478268 
L 107.641824 140.086587 
L 109.729528 140.086587 
L 109.840851 137.694891 
L 109.846698 137.694891 
L 109.953973 140.086587 
L 109.957797 137.694891 
L 109.964094 137.694891 
L 110.074742 140.086587 
L 110.075192 137.694891 
L 110.124444 137.694891 
L 110.227446 140.086587 
L 110.235543 137.694891 
L 110.362833 137.694891 
L 110.474157 140.086587 
L 111.839047 140.086587 
L 111.949471 142.478268 
L 111.950145 140.086587 
L 111.973984 140.086587 
L 111.986354 142.478268 
L 112.085083 140.086587 
L 112.121291 140.086587 
L 112.232614 142.478268 
L 117.738054 142.478268 
L 117.849378 140.086587 
L 119.427469 140.086587 
L 119.439838 137.694891 
L 119.538567 140.086587 
L 119.627851 140.086587 
L 119.739174 137.694891 
L 119.74817 137.694891 
L 119.831156 140.086587 
L 119.859268 137.694891 
L 119.908295 137.694891 
L 119.913918 140.086587 
L 120.019394 137.694891 
L 120.126894 137.694891 
L 120.139038 140.086587 
L 120.237992 137.694891 
L 121.019279 137.694891 
L 121.130602 140.086587 
L 122.803824 140.086587 
L 122.815968 142.478268 
L 122.914922 140.086587 
L 122.926842 140.086587 
L 122.939211 142.478268 
L 123.03794 140.086587 
L 123.074373 140.086587 
L 123.185696 142.478268 
L 123.197166 142.478268 
L 123.308489 140.086587 
L 123.332103 140.086587 
L 123.443427 142.478268 
L 123.455121 142.478268 
L 123.565995 140.086587 
L 123.566219 142.478268 
L 123.578589 142.478268 
L 123.602877 140.086587 
L 123.689687 142.478268 
L 123.701382 142.478268 
L 123.812705 140.086587 
L 123.824175 140.086587 
L 123.935498 142.478268 
L 123.971481 142.478268 
L 124.057166 140.086587 
L 124.082579 142.478268 
L 127.871618 142.478268 
L 127.981142 140.086587 
L 127.982716 142.478268 
L 127.991937 142.478268 
L 128.10326 140.086587 
L 129.259447 140.086587 
L 129.370771 137.694891 
L 129.470849 137.694891 
L 129.482993 140.086587 
L 129.581947 137.694891 
L 129.747695 137.694891 
L 129.755792 140.086587 
L 129.858794 137.694891 
L 131.337931 137.694891 
L 131.449254 140.086587 
L 132.137434 140.086587 
L 132.248758 142.478268 
L 132.29756 142.478268 
L 132.309479 140.086587 
L 132.408658 142.478268 
L 133.206812 142.478268 
L 133.318135 144.869948 
L 134.3612 144.869948 
L 134.472524 146.464415 
L 135.601948 146.464415 
L 135.713272 148.856095 
L 137.614538 148.856095 
L 137.663565 150.450562 
L 137.725636 148.856095 
L 137.749475 148.856095 
L 137.860798 150.450562 
L 137.884412 150.450562 
L 137.995061 148.856095 
L 137.995511 150.450562 
L 138.00743 150.450562 
L 138.118079 148.856095 
L 138.118528 150.450562 
L 138.151138 150.450562 
L 138.25459 148.856095 
L 138.262237 150.450562 
L 138.266959 150.450562 
L 138.378283 148.856095 
L 139.110317 148.856095 
L 139.22164 146.464415 
L 139.250427 146.464415 
L 139.268419 148.856095 
L 139.361525 146.464415 
L 139.365798 146.464415 
L 139.378168 148.856095 
L 139.476897 146.464415 
L 142.480375 146.464415 
L 142.591699 148.856095 
L 142.639826 148.856095 
L 142.65242 146.464415 
L 142.750925 148.856095 
L 149.05272 148.856095 
L 149.164043 146.464415 
L 150.521287 146.464415 
L 150.612144 144.869948 
L 150.632385 146.464415 
L 150.636658 146.464415 
L 150.747981 144.869948 
L 152.969498 144.869948 
L 153.067553 146.464415 
L 153.080597 144.869948 
L 153.116805 144.869948 
L 153.227453 146.464415 
L 153.227903 144.869948 
L 153.239823 144.869948 
L 153.349797 146.464415 
L 153.350921 144.869948 
L 153.362391 144.869948 
L 153.473714 146.464415 
L 153.509472 146.464415 
L 153.521392 144.869948 
L 153.620571 146.464415 
L 153.631815 146.464415 
L 153.643735 144.869948 
L 153.742914 146.464415 
L 155.898087 146.464415 
L 156.00941 144.869948 
L 156.888301 144.869948 
L 156.999625 142.478268 
L 158.949468 142.478268 
L 159.004343 140.086587 
L 159.060566 142.478268 
L 159.094526 142.478268 
L 159.161769 140.086587 
L 159.205624 142.478268 
L 159.234411 142.478268 
L 159.345734 140.086587 
L 159.362151 140.086587 
L 159.422198 142.478268 
L 159.473249 140.086587 
L 159.489217 140.086587 
L 159.500237 142.478268 
L 159.600315 140.086587 
L 163.524966 140.086587 
L 163.636289 142.478268 
L 163.684192 142.478268 
L 163.795515 140.086587 
L 163.80676 140.086587 
L 163.918083 142.478268 
L 169.385966 142.478268 
L 169.49549 144.869948 
L 169.497064 142.478268 
L 169.596468 142.478268 
L 169.651342 144.869948 
L 169.707566 142.478268 
L 170.726567 142.478268 
L 170.737137 140.086587 
L 170.837666 142.478268 
L 170.851609 142.478268 
L 170.961358 140.086587 
L 170.962707 142.478268 
L 170.979125 142.478268 
L 171.090448 140.086587 
L 173.609277 140.086587 
L 173.621421 142.478268 
L 173.720375 140.086587 
L 173.73162 140.086587 
L 173.842943 142.478268 
L 178.287777 142.478268 
L 178.360868 144.869948 
L 178.398875 142.478268 
L 178.641987 142.478268 
L 178.654356 144.869948 
L 178.753085 142.478268 
L 179.327468 142.478268 
L 179.339838 144.869948 
L 179.438567 142.478268 
L 179.547641 142.478268 
L 179.608363 144.869948 
L 179.658739 142.478268 
L 179.681454 142.478268 
L 179.75387 144.869948 
L 179.792552 142.478268 
L 179.814142 142.478268 
L 179.923891 144.869948 
L 179.92524 142.478268 
L 179.935586 142.478268 
L 180.046909 144.869948 
L 180.079069 144.869948 
L 180.190392 142.478268 
L 181.100994 142.478268 
L 181.212317 140.086587 
L 181.228284 140.086587 
L 181.331062 142.478268 
L 181.339383 140.086587 
L 181.35535 140.086587 
L 181.415847 142.478268 
L 181.466449 140.086587 
L 184.750822 140.086587 
L 184.862145 142.478268 
L 184.872715 142.478268 
L 184.946481 140.086587 
L 184.983813 142.478268 
L 191.525122 142.478268 
L 191.636445 140.086587 
L 191.725954 140.086587 
L 191.738323 142.478268 
L 191.837052 140.086587 
L 193.32541 140.086587 
L 193.331032 137.694891 
L 193.436508 140.086587 
L 193.543109 140.086587 
L 193.654432 137.694891 
L 193.657805 137.694891 
L 193.769129 140.086587 
L 193.784871 140.086587 
L 193.881576 137.694891 
L 193.89597 140.086587 
L 193.911712 140.086587 
L 194.015164 137.694891 
L 194.022811 140.086587 
L 194.026409 140.086587 
L 194.137732 137.694891 
L 194.183386 137.694891 
L 194.195755 140.086587 
L 194.294484 137.694891 
L 194.384892 137.694891 
L 194.482497 140.086587 
L 194.495991 137.694891 
L 194.543893 137.694891 
L 194.655217 140.086587 
L 196.375892 140.086587 
L 196.388261 142.478268 
L 196.48699 140.086587 
L 196.621028 140.086587 
L 196.633397 142.478268 
L 196.732126 140.086587 
L 196.75574 140.086587 
L 196.865489 142.478268 
L 196.866838 140.086587 
L 196.890227 140.086587 
L 197.001551 142.478268 
L 197.012795 142.478268 
L 197.11085 140.086587 
L 197.123894 142.478268 
L 197.135139 142.478268 
L 197.246462 140.086587 
L 197.257257 140.086587 
L 197.367231 142.478268 
L 197.368355 140.086587 
L 197.3796 140.086587 
L 197.490923 142.478268 
L 197.501718 142.478268 
L 197.613041 140.086587 
L 197.660045 140.086587 
L 197.771368 142.478268 
L 197.818821 142.478268 
L 197.929019 140.086587 
L 197.929919 142.478268 
L 197.965677 142.478268 
L 198.077001 140.086587 
L 198.087346 140.086587 
L 198.198669 142.478268 
L 198.210139 142.478268 
L 198.321462 140.086587 
L 198.331807 140.086587 
L 198.44313 142.478268 
L 198.465845 142.478268 
L 198.563449 140.086587 
L 198.576943 142.478268 
L 198.587963 142.478268 
L 198.699286 140.086587 
L 198.722226 140.086587 
L 198.833549 142.478268 
L 198.892921 142.478268 
L 199.004245 140.086587 
L 199.015264 140.086587 
L 199.126588 142.478268 
L 199.161446 142.478268 
L 199.259501 140.086587 
L 199.272545 142.478268 
L 199.442341 142.478268 
L 199.553664 140.086587 
L 199.564909 140.086587 
L 199.662513 142.478268 
L 199.676007 140.086587 
L 199.687027 140.086587 
L 199.79835 142.478268 
L 199.833884 142.478268 
L 199.943408 140.086587 
L 199.944982 142.478268 
L 199.956002 142.478268 
L 200.065976 140.086587 
L 200.0671 142.478268 
L 200.078345 142.478268 
L 200.188094 140.086587 
L 200.189443 142.478268 
L 200.200688 142.478268 
L 200.312012 140.086587 
L 200.34687 140.086587 
L 200.458194 142.478268 
L 200.468989 142.478268 
L 200.578063 140.086587 
L 200.580087 142.478268 
L 200.590657 142.478268 
L 200.70198 140.086587 
L 200.724695 140.086587 
L 200.836018 142.478268 
L 200.846363 142.478268 
L 200.957686 140.086587 
L 200.967357 140.086587 
L 201.076206 142.478268 
L 201.078455 140.086587 
L 201.100495 140.086587 
L 201.209794 142.478268 
L 201.211593 140.086587 
L 201.352603 140.086587 
L 201.418947 142.478268 
L 201.463701 140.086587 
L 202.23037 140.086587 
L 202.341693 137.694891 
L 203.96184 137.694891 
L 204.073163 136.10044 
L 204.07811 136.10044 
L 204.172342 137.694891 
L 204.189209 136.10044 
L 205.268932 136.10044 
L 205.379131 137.694891 
L 205.38003 136.10044 
L 205.3915 136.10044 
L 205.502823 137.694891 
L 212.402165 137.694891 
L 212.513488 136.10044 
L 213.861512 136.10044 
L 213.972835 133.708744 
L 213.976658 133.708744 
L 214.083034 136.10044 
L 214.087756 133.708744 
L 214.13341 133.708744 
L 214.218421 136.10044 
L 214.244509 133.708744 
L 216.281387 133.708744 
L 216.354702 136.10044 
L 216.392485 133.708744 
L 216.403505 133.708744 
L 216.514828 136.10044 
L 216.683724 136.10044 
L 216.696094 133.708744 
L 216.794823 136.10044 
L 223.086722 136.10044 
L 223.198046 133.708744 
L 224.4253 133.708744 
L 224.43542 132.114293 
L 224.536398 133.708744 
L 224.668412 133.708744 
L 224.774788 132.114293 
L 224.77951 133.708744 
L 224.792554 133.708744 
L 224.903878 132.114293 
L 226.623878 132.114293 
L 226.733627 133.708744 
L 226.734976 132.114293 
L 226.745996 132.114293 
L 226.857319 133.708744 
L 229.679982 133.708744 
L 229.777586 136.10044 
L 229.79108 133.708744 
L 229.814244 133.708744 
L 229.925568 136.10044 
L 229.935913 136.10044 
L 230.033742 133.708744 
L 230.047011 136.10044 
L 230.057806 136.10044 
L 230.094689 133.708744 
L 230.168905 136.10044 
L 232.804004 136.10044 
L 232.816374 137.694891 
L 232.915103 136.10044 
L 232.961881 136.10044 
L 233.073204 137.694891 
L 233.083549 137.694891 
L 233.15664 136.10044 
L 233.194648 137.694891 
L 233.202969 137.694891 
L 233.314292 136.10044 
L 233.446756 136.10044 
L 233.456651 137.694891 
L 233.557854 136.10044 
L 236.69582 136.10044 
L 236.701217 133.708744 
L 236.806918 136.10044 
L 237.686709 136.10044 
L 237.772394 137.694891 
L 237.797807 136.10044 
L 237.808827 136.10044 
L 237.918351 137.694891 
L 237.919926 136.10044 
L 237.930721 136.10044 
L 238.042044 137.694891 
L 239.86797 137.694891 
L 239.880114 140.086587 
L 239.979068 137.694891 
L 240.038441 137.694891 
L 240.149764 140.086587 
L 240.184398 140.086587 
L 240.281553 137.694891 
L 240.295496 140.086587 
L 240.317536 140.086587 
L 240.390852 137.694891 
L 240.428634 140.086587 
L 240.500826 140.086587 
L 240.537259 137.694891 
L 240.611924 140.086587 
L 245.270633 140.086587 
L 245.381956 137.694891 
L 245.397024 137.694891 
L 245.506323 140.086587 
L 245.508123 137.694891 
L 245.51442 137.694891 
L 245.596731 140.086587 
L 245.625518 137.694891 
L 245.778672 137.694891 
L 245.851088 140.086587 
L 245.88977 137.694891 
L 245.925529 137.694891 
L 245.935649 140.086587 
L 246.036627 137.694891 
L 246.255225 137.694891 
L 246.275016 140.086587 
L 246.366324 137.694891 
L 247.735037 137.694891 
L 247.84636 140.086587 
L 249.572883 140.086587 
L 249.621685 142.478268 
L 249.683981 140.086587 
L 249.706695 140.086587 
L 249.818019 142.478268 
L 249.828364 142.478268 
L 249.901455 140.086587 
L 249.939462 142.478268 
L 250.023123 142.478268 
L 250.134447 140.086587 
L 250.145017 140.086587 
L 250.25634 142.478268 
L 250.35192 142.478268 
L 250.461894 140.086587 
L 250.463019 142.478268 
L 254.854102 142.478268 
L 254.965425 140.086587 
L 256.155122 140.086587 
L 256.266445 137.694891 
L 256.270269 137.694891 
L 256.381592 140.086587 
L 256.385415 140.086587 
L 256.496738 137.694891 
L 256.577476 137.694891 
L 256.584673 140.086587 
L 256.688574 137.694891 
L 258.992403 137.694891 
L 259.077638 140.086587 
L 259.103501 137.694891 
L 259.138585 137.694891 
L 259.248334 140.086587 
L 259.249683 137.694891 
L 259.260254 137.694891 
L 259.357858 140.086587 
L 259.371352 137.694891 
L 259.381922 137.694891 
L 259.493245 140.086587 
L 265.253042 140.086587 
L 265.364365 137.694891 
L 266.603314 137.694891 
L 266.714638 136.10044 
L 266.783006 136.10044 
L 266.879936 137.694891 
L 266.894104 136.10044 
L 266.964272 136.10044 
L 266.975067 137.694891 
L 267.07537 136.10044 
L 269.582504 136.10044 
L 269.693827 137.694891 
L 269.704173 137.694891 
L 269.815496 136.10044 
L 269.850355 136.10044 
L 269.959429 137.694891 
L 269.961453 136.10044 
L 269.971798 136.10044 
L 270.083121 137.694891 
L 276.067589 137.694891 
L 276.178912 136.10044 
L 277.293269 136.10044 
L 277.335549 133.708744 
L 277.404367 136.10044 
L 277.426632 136.10044 
L 277.537955 133.708744 
L 277.547176 133.708744 
L 277.552798 136.10044 
L 277.658274 133.708744 
L 279.931068 133.708744 
L 279.943437 136.10044 
L 280.042166 133.708744 
L 280.101538 133.708744 
L 280.17418 136.10044 
L 280.212637 133.708744 
L 280.222982 133.708744 
L 280.332281 136.10044 
L 280.33408 133.708744 
L 280.344875 133.708744 
L 280.456198 136.10044 
L 286.499364 136.10044 
L 286.610687 133.708744 
L 287.807805 133.708744 
L 287.815002 132.114293 
L 287.918904 133.708744 
L 287.984123 133.708744 
L 288.095447 132.114293 
L 288.09837 132.114293 
L 288.207669 133.708744 
L 288.209469 132.114293 
L 288.21824 132.114293 
L 288.310222 133.708744 
L 288.329338 132.114293 
L 288.334735 132.114293 
L 288.394782 133.708744 
L 288.445834 132.114293 
L 288.461351 132.114293 
L 288.467199 133.708744 
L 288.57245 132.114293 
L 290.191472 132.114293 
L 290.302795 133.708744 
L 290.324835 133.708744 
L 290.422215 132.114293 
L 290.435933 133.708744 
L 290.446279 133.708744 
L 290.458873 132.114293 
L 290.557377 133.708744 
L 297.294794 133.708744 
L 297.302216 132.114293 
L 297.405893 133.708744 
L 297.409041 133.708744 
L 297.520364 132.114293 
L 297.545328 132.114293 
L 297.553199 133.708744 
L 297.656426 132.114293 
L 299.787985 132.114293 
L 299.83049 129.722597 
L 299.899083 132.114293 
L 299.957107 132.114293 
L 299.987018 129.722597 
L 300.068205 132.114293 
L 300.103738 132.114293 
L 300.188299 129.722597 
L 300.214837 132.114293 
L 301.805972 132.114293 
L 301.879063 133.708744 
L 301.91707 132.114293 
L 301.951479 132.114293 
L 302.061453 133.708744 
L 302.062578 132.114293 
L 302.085742 132.114293 
L 302.197065 133.708744 
L 302.20741 133.708744 
L 302.280501 132.114293 
L 302.318509 133.708744 
L 302.353142 133.708744 
L 302.365512 132.114293 
L 302.464241 133.708744 
L 302.7665 133.708744 
L 302.77887 132.114293 
L 302.877599 133.708744 
L 307.543954 133.708744 
L 307.655277 132.114293 
L 309.204807 132.114293 
L 309.270251 129.722597 
L 309.315905 132.114293 
L 309.354812 132.114293 
L 309.451292 129.722597 
L 309.46591 132.114293 
L 309.492448 132.114293 
L 309.596575 129.722597 
L 309.603546 132.114293 
L 309.608494 132.114293 
L 309.719817 129.722597 
L 309.753327 129.722597 
L 309.765246 132.114293 
L 309.864425 129.722597 
L 309.964279 129.722597 
L 309.976423 132.114293 
L 310.075377 129.722597 
L 311.050749 129.722597 
L 311.162072 132.114293 
L 312.983725 132.114293 
L 313.092799 133.708744 
L 313.094823 132.114293 
L 313.104943 132.114293 
L 313.190404 133.708744 
L 313.216042 132.114293 
L 313.226612 132.114293 
L 313.323992 133.708744 
L 313.33771 132.114293 
L 313.348505 132.114293 
L 313.459828 133.708744 
L 313.470174 133.708744 
L 313.567553 132.114293 
L 313.581272 133.708744 
L 319.083564 133.708744 
L 319.188365 132.114293 
L 319.194662 133.708744 
L 319.200959 133.708744 
L 319.312282 132.114293 
L 319.314981 132.114293 
L 319.400216 133.708744 
L 319.426079 132.114293 
L 321.863271 132.114293 
L 321.974594 133.708744 
L 323.829082 133.708744 
L 323.937482 136.10044 
L 323.940181 133.708744 
L 324.07107 133.708744 
L 324.179919 136.10044 
L 324.182168 133.708744 
L 324.228272 133.708744 
L 324.339595 136.10044 
L 324.34994 136.10044 
L 324.447095 133.708744 
L 324.461038 136.10044 
L 324.483303 136.10044 
L 324.53188 133.708744 
L 324.594401 136.10044 
L 324.690657 136.10044 
L 324.702801 133.708744 
L 324.801755 136.10044 
L 324.810751 136.10044 
L 324.883392 133.708744 
L 324.921849 136.10044 
L 329.180694 136.10044 
L 329.282797 133.708744 
L 329.291792 136.10044 
L 329.294941 136.10044 
L 329.406264 133.708744 
L 332.937797 133.708744 
L 333.044173 136.10044 
L 333.048895 133.708744 
L 333.079931 133.708744 
L 333.191254 136.10044 
L 333.22139 136.10044 
L 333.23331 133.708744 
L 333.332489 136.10044 
L 339.699953 136.10044 
L 339.811276 133.708744 
L 339.833766 133.708744 
L 339.84591 136.10044 
L 339.944864 133.708744 
L 341.549493 133.708744 
L 341.660816 132.114293 
L 341.662616 132.114293 
L 341.757072 133.708744 
L 341.773714 132.114293 
L 341.798003 132.114293 
L 341.88976 133.708744 
L 341.909101 132.114293 
L 341.909551 132.114293 
L 341.979943 133.708744 
L 342.020649 132.114293 
L 342.086319 132.114293 
L 342.094415 133.708744 
L 342.197417 132.114293 
L 342.744138 132.114293 
L 342.855461 133.708744 
L 345.261842 133.708744 
L 345.272412 136.10044 
L 345.37294 133.708744 
L 345.432313 133.708744 
L 345.528118 136.10044 
L 345.543411 133.708744 
L 345.581868 133.708744 
L 345.624598 136.10044 
L 345.692967 133.708744 
L 345.751889 133.708744 
L 345.848144 136.10044 
L 345.862988 133.708744 
L 345.880305 133.708744 
L 345.98758 136.10044 
L 345.991403 133.708744 
L 346.019515 133.708744 
L 346.06202 136.10044 
L 346.130613 133.708744 
L 346.157825 133.708744 
L 346.253631 136.10044 
L 346.268924 133.708744 
L 346.327172 133.708744 
L 346.438495 136.10044 
L 346.454238 136.10044 
L 346.559264 133.708744 
L 346.565336 136.10044 
L 346.569834 136.10044 
L 346.681157 133.708744 
L 346.68543 133.708744 
L 346.796753 136.10044 
L 346.800352 136.10044 
L 346.911675 133.708744 
L 346.926293 133.708744 
L 347.037616 136.10044 
L 347.052235 136.10044 
L 347.163558 133.708744 
L 347.167831 133.708744 
L 347.279154 136.10044 
L 347.283202 136.10044 
L 347.394525 133.708744 
L 347.450974 133.708744 
L 347.556 136.10044 
L 347.562073 133.708744 
L 347.566571 133.708744 
L 347.650456 136.10044 
L 347.677669 133.708744 
L 347.692737 133.708744 
L 347.80406 136.10044 
L 347.818453 136.10044 
L 347.92348 133.708744 
L 347.929552 136.10044 
L 347.93405 136.10044 
L 348.045373 133.708744 
L 348.059991 133.708744 
L 348.171314 136.10044 
L 348.175138 136.10044 
L 348.286461 133.708744 
L 348.290734 133.708744 
L 348.364275 136.10044 
L 348.401832 133.708744 
L 348.406105 133.708744 
L 348.500561 136.10044 
L 348.517204 133.708744 
L 348.542617 133.708744 
L 348.646743 136.10044 
L 348.653715 133.708744 
L 348.657313 133.708744 
L 348.76234 136.10044 
L 348.768412 133.708744 
L 348.783255 133.708744 
L 348.894578 136.10044 
L 348.909421 136.10044 
L 349.014672 133.708744 
L 349.020519 136.10044 
L 349.056728 136.10044 
L 349.161529 133.708744 
L 349.167826 136.10044 
L 349.172324 136.10044 
L 349.23507 133.708744 
L 349.283422 136.10044 
L 349.28792 136.10044 
L 349.392946 133.708744 
L 349.399019 136.10044 
L 349.403516 136.10044 
L 349.511016 133.708744 
L 349.514615 136.10044 
L 349.521362 136.10044 
L 349.632685 133.708744 
L 349.681937 133.708744 
L 349.788088 136.10044 
L 349.793035 133.708744 
L 349.841838 133.708744 
L 349.949563 136.10044 
L 349.952936 133.708744 
L 349.992068 133.708744 
L 350.103391 136.10044 
L 350.119808 136.10044 
L 350.228208 133.708744 
L 350.230907 136.10044 
L 350.239228 136.10044 
L 350.281733 133.708744 
L 350.350326 136.10044 
L 350.378888 136.10044 
L 350.453553 133.708744 
L 350.489986 136.10044 
L 350.496958 136.10044 
L 350.582193 133.708744 
L 350.608056 136.10044 
L 350.614803 136.10044 
L 350.721404 133.708744 
L 350.725902 136.10044 
L 350.742769 136.10044 
L 350.839249 133.708744 
L 350.853867 136.10044 
L 350.892774 136.10044 
L 350.967214 133.708744 
L 351.003872 136.10044 
L 351.009495 136.10044 
L 351.120818 133.708744 
L 351.12689 133.708744 
L 351.238213 136.10044 
L 351.469406 136.10044 
L 351.479751 133.708744 
L 351.580504 136.10044 
L 351.802476 136.10044 
L 351.813046 133.708744 
L 351.913574 136.10044 
L 352.145442 136.10044 
L 352.155787 133.708744 
L 352.25654 136.10044 
L 352.413292 136.10044 
L 352.424087 133.708744 
L 352.52439 136.10044 
L 353.282963 136.10044 
L 353.293533 133.708744 
L 353.394061 136.10044 
L 353.652466 136.10044 
L 353.763789 133.708744 
L 353.767163 133.708744 
L 353.878486 136.10044 
L 358.942006 136.10044 
L 359.05333 137.694891 
L 359.077169 137.694891 
L 359.181745 136.10044 
L 359.188267 137.694891 
L 359.233696 137.694891 
L 359.345019 136.10044 
L 359.358513 136.10044 
L 359.469836 137.694891 
L 359.856431 137.694891 
L 359.866552 136.10044 
L 359.96753 137.694891 
L 360.208168 137.694891 
L 360.319491 136.10044 
L 360.347828 136.10044 
L 360.376839 137.694891 
L 360.458926 136.10044 
L 364.863503 136.10044 
L 364.969204 137.694891 
L 364.974602 136.10044 
L 365.02183 136.10044 
L 365.126856 137.694891 
L 365.132928 136.10044 
L 365.137651 136.10044 
L 365.248974 137.694891 
L 365.264042 137.694891 
L 365.357823 136.10044 
L 365.37514 137.694891 
L 365.379189 137.694891 
L 365.483765 136.10044 
L 365.490287 137.694891 
L 365.52627 137.694891 
L 365.637593 136.10044 
L 365.641641 136.10044 
L 365.752965 137.694891 
L 365.756788 137.694891 
L 365.840899 136.10044 
L 365.867886 137.694891 
L 365.988205 137.694891 
L 365.998551 136.10044 
L 366.099304 137.694891 
L 370.860115 137.694891 
L 370.971438 136.10044 
L 370.983133 136.10044 
L 370.989655 137.694891 
L 371.094231 136.10044 
L 372.615649 136.10044 
L 372.70021 133.708744 
L 372.726747 136.10044 
L 372.728322 136.10044 
L 372.839645 133.708744 
L 372.868881 133.708744 
L 372.979305 136.10044 
L 372.97998 133.708744 
L 374.491727 133.708744 
L 374.60305 136.10044 
L 374.606198 136.10044 
L 374.71055 133.708744 
L 374.717297 136.10044 
L 374.856507 136.10044 
L 374.866852 133.708744 
L 374.967605 136.10044 
L 380.878532 136.10044 
L 380.888877 137.694891 
L 380.98963 136.10044 
L 382.362392 136.10044 
L 382.473715 133.708744 
L 382.477988 133.708744 
L 382.567497 136.10044 
L 382.589087 133.708744 
L 382.635415 133.708744 
L 382.745839 136.10044 
L 382.746514 133.708744 
L 382.756409 133.708744 
L 382.766754 136.10044 
L 382.867507 133.708744 
L 385.440986 133.708744 
L 385.543988 136.10044 
L 385.552084 133.708744 
L 385.564004 133.708744 
L 385.675327 136.10044 
L 385.687471 136.10044 
L 385.698041 133.708744 
L 385.79857 136.10044 
L 391.98162 136.10044 
L 391.991965 137.694891 
L 392.092718 136.10044 
L 393.135558 136.10044 
L 393.146353 133.708744 
L 393.246657 136.10044 
L 393.265998 136.10044 
L 393.355956 133.708744 
L 393.377096 136.10044 
L 393.386092 136.10044 
L 393.497415 133.708744 
L 393.522378 133.708744 
L 393.633702 136.10044 
L 393.6373 136.10044 
L 393.748623 133.708744 
L 395.895025 133.708744 
L 396.006348 136.10044 
L 396.039183 136.10044 
L 396.100805 133.708744 
L 396.150282 136.10044 
L 400.627725 136.10044 
L 400.638295 137.694891 
L 400.738823 136.10044 
L 400.823159 136.10044 
L 400.833054 137.694891 
L 400.934257 136.10044 
L 400.935607 136.10044 
L 400.945502 137.694891 
L 401.046705 136.10044 
L 401.089435 136.10044 
L 401.160952 137.694891 
L 401.200533 136.10044 
L 401.221898 136.10044 
L 401.323101 137.694891 
L 401.332997 136.10044 
L 401.395068 136.10044 
L 401.435999 137.694891 
L 401.506166 136.10044 
L 401.579482 136.10044 
L 401.68136 137.694891 
L 401.690581 136.10044 
L 401.691255 136.10044 
L 401.782113 137.694891 
L 401.802354 136.10044 
L 401.976198 136.10044 
L 402.087521 137.694891 
L 402.08887 137.694891 
L 402.200194 136.10044 
L 402.210089 136.10044 
L 402.321412 137.694891 
L 402.323436 137.694891 
L 402.423065 136.10044 
L 402.434535 137.694891 
L 402.47614 137.694891 
L 402.566548 136.10044 
L 402.587239 137.694891 
L 402.613327 137.694891 
L 402.72465 136.10044 
L 404.203112 136.10044 
L 404.209409 137.694891 
L 404.314211 136.10044 
L 404.449823 136.10044 
L 404.456794 137.694891 
L 404.560921 136.10044 
L 404.578913 136.10044 
L 404.687087 137.694891 
L 404.690011 136.10044 
L 404.703954 136.10044 
L 404.805832 137.694891 
L 404.815053 136.10044 
L 404.815952 136.10044 
L 404.927276 137.694891 
L 404.944368 137.694891 
L 404.990471 136.10044 
L 405.055466 137.694891 
L 405.108991 137.694891 
L 405.145424 136.10044 
L 405.220089 137.694891 
L 405.320843 137.694891 
L 405.32579 136.10044 
L 405.431941 137.694891 
L 406.665043 137.694891 
L 406.776366 140.086587 
L 406.797956 140.086587 
L 406.828317 137.694891 
L 406.909054 140.086587 
L 408.602742 140.086587 
L 408.684379 142.478268 
L 408.71384 140.086587 
L 408.786481 140.086587 
L 408.897805 142.478268 
L 408.909049 142.478268 
L 409.010702 140.086587 
L 409.020148 142.478268 
L 409.030943 142.478268 
L 409.093239 140.086587 
L 409.142041 142.478268 
L 409.144065 142.478268 
L 409.195341 140.086587 
L 409.255163 142.478268 
L 409.276978 142.478268 
L 409.307564 140.086587 
L 409.388077 142.478268 
L 409.389201 142.478268 
L 409.399771 140.086587 
L 409.500299 142.478268 
L 409.531785 142.478268 
L 409.5527 140.086587 
L 409.642883 142.478268 
L 409.736215 142.478268 
L 409.74656 140.086587 
L 409.847313 142.478268 
L 410.013286 142.478268 
L 410.023181 140.086587 
L 410.124384 142.478268 
L 413.293386 142.478268 
L 413.404709 140.086587 
L 413.406958 140.086587 
L 413.468804 142.478268 
L 413.518056 140.086587 
L 415.061964 140.086587 
L 415.153946 137.694891 
L 415.173062 140.086587 
L 415.236257 140.086587 
L 415.347581 137.694891 
L 415.365123 137.694891 
L 415.464751 140.086587 
L 415.476221 137.694891 
L 415.540091 137.694891 
L 415.630949 140.086587 
L 415.65119 137.694891 
L 415.797147 137.694891 
L 415.802094 140.086587 
L 415.908245 137.694891 
L 417.039694 137.694891 
L 417.151017 140.086587 
L 417.171932 140.086587 
L 417.202293 137.694891 
L 417.283031 140.086587 
L 422.640715 140.086587 
L 422.65016 142.478268 
L 422.751813 140.086587 
L 422.77003 140.086587 
L 422.78015 142.478268 
L 422.881128 140.086587 
L 422.980982 140.086587 
L 423.000772 142.478268 
L 423.09208 140.086587 
L 423.110521 140.086587 
L 423.180914 142.478268 
L 423.22162 140.086587 
L 423.411431 140.086587 
L 423.421552 142.478268 
L 423.52253 140.086587 
L 423.552666 140.086587 
L 423.572457 142.478268 
L 423.663764 140.086587 
L 423.672535 140.086587 
L 423.682655 142.478268 
L 423.783633 140.086587 
L 425.021908 140.086587 
L 425.133231 137.694891 
L 425.165166 137.694891 
L 425.231285 140.086587 
L 425.276264 137.694891 
L 425.292232 137.694891 
L 425.302127 140.086587 
L 425.40333 137.694891 
L 428.132661 137.694891 
L 428.243985 140.086587 
L 428.252531 140.086587 
L 428.322923 137.694891 
L 428.363629 140.086587 
L 428.373075 140.086587 
L 428.474502 137.694891 
L 428.484173 140.086587 
L 428.524429 140.086587 
L 428.534325 137.694891 
L 428.635527 140.086587 
L 435.218667 140.086587 
L 435.32999 137.694891 
L 435.336062 137.694891 
L 435.417699 140.086587 
L 435.44716 137.694891 
L 439.439054 137.694891 
L 439.44895 140.086587 
L 439.550153 137.694891 
L 439.618746 137.694891 
L 439.730069 140.086587 
L 439.739065 140.086587 
L 439.850388 137.694891 
L 439.858709 137.694891 
L 439.969133 140.086587 
L 439.969808 137.694891 
L 439.989149 137.694891 
L 440.100472 140.086587 
L 440.177836 140.086587 
L 440.187956 137.694891 
L 440.288934 140.086587 
L 440.357527 140.086587 
L 440.468851 137.694891 
L 440.477846 137.694891 
L 440.58917 140.086587 
L 445.844076 140.086587 
L 445.939657 137.694891 
L 445.955175 140.086587 
L 445.970018 140.086587 
L 446.081341 137.694891 
L 450.408779 137.694891 
L 450.497838 140.086587 
L 450.519877 137.694891 
L 450.527749 137.694891 
L 450.626028 140.086587 
L 450.638847 137.694891 
L 450.656389 137.694891 
L 450.767712 140.086587 
L 450.822587 140.086587 
L 450.900625 137.694891 
L 450.933685 140.086587 
L 451.049281 140.086587 
L 451.058952 137.694891 
L 451.16038 140.086587 
L 456.563267 140.086587 
L 456.673016 137.694891 
L 456.674366 140.086587 
L 456.68786 140.086587 
L 456.799183 137.694891 
L 460.476223 137.694891 
L 460.584623 140.086587 
L 460.587322 137.694891 
L 460.662661 137.694891 
L 460.773985 140.086587 
L 460.879011 140.086587 
L 460.96672 137.694891 
L 460.990109 140.086587 
L 467.623625 140.086587 
L 467.734948 137.694891 
L 467.74147 137.694891 
L 467.821083 140.086587 
L 467.852569 137.694891 
L 467.856167 137.694891 
L 467.915989 140.086587 
L 467.967265 137.694891 
L 467.980984 137.694891 
L 468.092307 140.086587 
L 468.09613 140.086587 
L 468.207454 137.694891 
L 468.275822 137.694891 
L 468.285717 140.086587 
L 468.38692 137.694891 
L 470.790378 137.694891 
L 470.901701 140.086587 
L 470.907998 140.086587 
L 470.986262 137.694891 
L 471.019096 140.086587 
L 474.749437 140.086587 
L 474.86076 137.694891 
L 474.871555 137.694891 
L 474.969609 140.086587 
L 474.982653 137.694891 
L 474.994123 137.694891 
L 475.003794 140.086587 
L 475.105221 137.694891 
L 481.895489 137.694891 
L 481.905385 140.086587 
L 482.006588 137.694891 
L 482.032451 137.694891 
L 482.143774 140.086587 
L 482.149621 140.086587 
L 482.260944 137.694891 
L 482.266567 137.694891 
L 482.37789 140.086587 
L 486.045935 140.086587 
L 486.157258 142.478268 
L 486.163105 142.478268 
L 486.274428 140.086587 
L 486.290396 140.086587 
L 486.388 142.478268 
L 486.401494 140.086587 
L 486.407791 140.086587 
L 486.519115 142.478268 
L 486.535757 142.478268 
L 486.64708 140.086587 
L 486.662823 140.086587 
L 486.774146 142.478268 
L 486.791013 142.478268 
L 486.902336 140.086587 
L 486.918529 140.086587 
L 487.029852 142.478268 
L 487.075506 142.478268 
L 487.183456 140.086587 
L 487.186604 142.478268 
L 487.212917 142.478268 
L 487.222587 140.086587 
L 487.324015 142.478268 
L 487.330762 142.478268 
L 487.340433 140.086587 
L 487.44186 142.478268 
L 487.458278 142.478268 
L 487.468398 140.086587 
L 487.569376 142.478268 
L 487.772007 142.478268 
L 487.781677 140.086587 
L 487.883105 142.478268 
L 488.127117 142.478268 
L 488.137012 140.086587 
L 488.238215 142.478268 
L 488.283194 142.478268 
L 488.293315 140.086587 
L 488.394293 142.478268 
L 488.731636 142.478268 
L 488.741756 140.086587 
L 488.842734 142.478268 
L 499.545733 142.478268 
L 499.641763 140.086587 
L 499.656831 142.478268 
L 499.675947 142.478268 
L 499.78727 140.086587 
L 499.807511 140.086587 
L 499.918834 142.478268 
L 499.921983 142.478268 
L 500.033306 140.086587 
L 502.936706 140.086587 
L 502.946602 142.478268 
L 503.047805 140.086587 
L 503.064447 140.086587 
L 503.171947 142.478268 
L 503.175545 140.086587 
L 503.182067 140.086587 
L 503.29339 142.478268 
L 503.319253 142.478268 
L 503.328924 140.086587 
L 503.430352 142.478268 
L 503.446994 142.478268 
L 503.456889 140.086587 
L 503.558092 142.478268 
L 508.795907 142.478268 
L 508.844709 144.869948 
L 508.907005 142.478268 
L 509.109636 142.478268 
L 509.119307 144.869948 
L 509.220734 142.478268 
L 509.325536 142.478268 
L 509.425389 144.869948 
L 509.436634 142.478268 
L 510.64927 142.478268 
L 510.65939 140.086587 
L 510.760369 142.478268 
L 510.796352 142.478268 
L 510.893956 140.086587 
L 510.90745 142.478268 
L 510.912398 142.478268 
L 511.023721 140.086587 
L 511.026195 140.086587 
L 511.137518 142.478268 
L 511.157759 142.478268 
L 511.269082 140.086587 
L 511.279652 140.086587 
L 511.372984 142.478268 
L 511.39075 140.086587 
L 513.345092 140.086587 
L 513.453042 142.478268 
L 513.45619 140.086587 
L 513.462937 140.086587 
L 513.570887 142.478268 
L 513.574035 140.086587 
L 513.580782 140.086587 
L 513.692105 142.478268 
L 516.821525 142.478268 
L 516.830971 144.869948 
L 516.932624 142.478268 
L 517.105343 142.478268 
L 517.115014 144.869948 
L 517.216442 142.478268 
L 517.252425 142.478268 
L 517.330464 144.869948 
L 517.363523 142.478268 
L 517.438638 142.478268 
L 517.549962 144.869948 
L 517.556484 144.869948 
L 517.664434 142.478268 
L 517.667582 144.869948 
L 517.674554 144.869948 
L 517.785877 142.478268 
L 517.801845 142.478268 
L 517.900124 144.869948 
L 517.912943 142.478268 
L 517.919465 142.478268 
L 518.027415 144.869948 
L 518.030563 142.478268 
L 518.03731 142.478268 
L 518.148633 144.869948 
L 518.165276 144.869948 
L 518.263555 142.478268 
L 518.276374 144.869948 
L 518.293016 144.869948 
L 518.404339 142.478268 
L 518.410861 142.478268 
L 518.522185 144.869948 
L 518.538602 144.869948 
L 518.646327 142.478268 
L 518.6497 144.869948 
L 518.744606 144.869948 
L 518.774068 142.478268 
L 518.855705 144.869948 
L 519.058785 144.869948 
L 519.147169 142.478268 
L 519.169884 144.869948 
L 519.17663 144.869948 
L 519.255119 142.478268 
L 519.287729 144.869948 
L 519.7265 144.869948 
L 519.736395 142.478268 
L 519.837598 144.869948 
L 520.243534 144.869948 
L 520.351484 142.478268 
L 520.354633 144.869948 
L 520.359131 144.869948 
L 520.470454 142.478268 
L 522.008514 142.478268 
L 522.018409 140.086587 
L 522.119612 142.478268 
L 522.149748 142.478268 
L 522.252525 140.086587 
L 522.260846 142.478268 
L 522.272091 142.478268 
L 522.383414 140.086587 
L 522.39376 140.086587 
L 522.490914 142.478268 
L 522.504858 140.086587 
L 522.525773 140.086587 
L 522.533195 142.478268 
L 522.636872 140.086587 
L 522.648341 140.086587 
L 522.662959 142.478268 
L 522.75944 140.086587 
L 522.902698 140.086587 
L 522.909445 142.478268 
L 523.013796 140.086587 
L 523.04933 140.086587 
L 523.059225 142.478268 
L 523.160428 140.086587 
L 523.768096 140.086587 
L 523.8666 142.478268 
L 523.879194 140.086587 
L 523.886166 140.086587 
L 523.997489 142.478268 
L 524.023802 142.478268 
L 524.033697 140.086587 
L 524.1349 142.478268 
L 526.440528 142.478268 
L 526.538807 144.869948 
L 526.551626 142.478268 
L 526.568044 142.478268 
L 526.646307 144.869948 
L 526.679142 142.478268 
L 526.695784 142.478268 
L 526.807108 144.869948 
L 526.813405 144.869948 
L 526.924728 142.478268 
L 526.9308 142.478268 
L 527.042123 144.869948 
L 527.077657 144.869948 
L 527.087777 142.478268 
L 527.188755 144.869948 
L 527.225413 144.869948 
L 527.254874 142.478268 
L 527.336511 144.869948 
L 527.343258 144.869948 
L 527.352704 142.478268 
L 527.454357 144.869948 
L 531.175701 144.869948 
L 531.287025 142.478268 
L 535.790331 142.478268 
L 535.869269 144.869948 
L 535.901429 142.478268 
L 535.957878 142.478268 
L 536.035917 144.869948 
L 536.068976 142.478268 
L 536.075723 142.478268 
L 536.174452 144.869948 
L 536.186822 142.478268 
L 536.194018 142.478268 
L 536.305341 144.869948 
L 536.312313 144.869948 
L 536.322209 142.478268 
L 536.423412 144.869948 
L 536.548903 144.869948 
L 536.558574 142.478268 
L 536.660002 144.869948 
L 542.23336 144.869948 
L 542.34041 142.478268 
L 542.344459 144.869948 
L 542.357952 144.869948 
L 542.469275 142.478268 
L 545.986865 142.478268 
L 546.09459 144.869948 
L 546.097963 142.478268 
L 546.153962 142.478268 
L 546.261462 144.869948 
L 546.265061 142.478268 
L 546.271583 142.478268 
L 546.382906 144.869948 
L 553.217928 144.869948 
L 553.271228 142.478268 
L 553.329026 144.869948 
L 553.383001 144.869948 
L 553.494324 142.478268 
L 556.249743 142.478268 
L 556.259639 144.869948 
L 556.360842 142.478268 
L 556.387604 142.478268 
L 556.498927 144.869948 
L 556.515345 144.869948 
L 556.594283 142.478268 
L 556.626443 144.869948 
L 561.640487 144.869948 
L 561.650382 146.464415 
L 561.751585 144.869948 
L 561.778573 144.869948 
L 561.788468 146.464415 
L 561.889671 144.869948 
L 562.40783 144.869948 
L 562.506109 146.464415 
L 562.518928 144.869948 
L 562.526125 144.869948 
L 562.633625 146.464415 
L 562.637223 144.869948 
L 562.64352 144.869948 
L 562.754844 146.464415 
L 562.77351 146.464415 
L 562.884833 144.869948 
L 564.237354 144.869948 
L 564.334959 142.478268 
L 564.348453 144.869948 
L 564.349352 144.869948 
L 564.457302 142.478268 
L 564.460451 144.869948 
L 564.465398 144.869948 
L 564.576722 142.478268 
L 564.588641 142.478268 
L 564.636544 144.869948 
L 564.699739 142.478268 
L 564.777553 142.478268 
L 564.787674 144.869948 
L 564.888652 142.478268 
L 566.71975 142.478268 
L 566.831073 144.869948 
L 566.896518 144.869948 
L 566.925979 142.478268 
L 567.007616 144.869948 
L 567.044274 144.869948 
L 567.05417 142.478268 
L 567.155373 144.869948 
L 571.046963 144.869948 
L 571.105886 146.464415 
L 571.158062 144.869948 
L 571.165033 144.869948 
L 571.253192 146.464415 
L 571.276132 144.869948 
L 571.282654 144.869948 
L 571.391053 146.464415 
L 571.393752 144.869948 
L 571.400499 144.869948 
L 571.509123 146.464415 
L 571.511597 144.869948 
L 571.518794 144.869948 
L 571.616848 146.464415 
L 571.629892 144.869948 
L 571.636864 144.869948 
L 571.745039 146.464415 
L 571.747962 144.869948 
L 571.754934 144.869948 
L 571.866257 146.464415 
L 571.8829 146.464415 
L 571.941822 144.869948 
L 571.993998 146.464415 
L 572.030656 146.464415 
L 572.059892 144.869948 
L 572.141754 146.464415 
L 572.48337 146.464415 
L 572.594694 144.869948 
L 572.600991 144.869948 
L 572.712314 146.464415 
L 573.081592 146.464415 
L 573.091488 144.869948 
L 573.192691 146.464415 
L 573.544652 146.464415 
L 573.655975 144.869948 
L 573.666545 144.869948 
L 573.672842 146.464415 
L 573.777644 144.869948 
L 575.422529 144.869948 
L 575.432649 142.478268 
L 575.533627 144.869948 
L 575.651472 144.869948 
L 575.685432 142.478268 
L 575.762571 144.869948 
L 575.773141 144.869948 
L 575.874794 142.478268 
L 575.884239 144.869948 
L 575.884689 144.869948 
L 575.991964 142.478268 
L 575.995787 144.869948 
L 575.997362 144.869948 
L 576.108685 142.478268 
L 576.138146 142.478268 
L 576.225181 144.869948 
L 576.249244 142.478268 
L 576.40982 142.478268 
L 576.424663 144.869948 
L 576.520918 142.478268 
L 577.111044 142.478268 
L 577.222367 144.869948 
L 577.308052 144.869948 
L 577.317948 142.478268 
L 577.419151 144.869948 
L 579.962718 144.869948 
L 580.031536 146.464415 
L 580.073816 144.869948 
L 580.110249 144.869948 
L 580.208529 146.464415 
L 580.221348 144.869948 
L 580.23799 144.869948 
L 580.316478 146.464415 
L 580.349088 144.869948 
L 580.385521 144.869948 
L 580.493246 146.464415 
L 580.49662 144.869948 
L 580.532378 144.869948 
L 580.643701 146.464415 
L 580.6997 146.464415 
L 580.811023 144.869948 
L 580.856677 144.869948 
L 580.968001 146.464415 
L 580.993863 146.464415 
L 581.003759 144.869948 
L 581.104962 146.464415 
L 581.268461 146.464415 
L 581.327608 144.869948 
L 581.379559 146.464415 
L 581.642237 146.464415 
L 581.652132 144.869948 
L 581.753335 146.464415 
L 581.917509 146.464415 
L 581.927629 144.869948 
L 582.028607 146.464415 
L 584.280036 146.464415 
L 584.367295 144.869948 
L 584.391134 146.464415 
L 584.391809 146.464415 
L 584.503132 144.869948 
L 586.890622 144.869948 
L 586.94887 142.478268 
L 587.00172 144.869948 
L 587.063791 144.869948 
L 587.134408 142.478268 
L 587.17489 144.869948 
L 587.178038 144.869948 
L 587.280366 142.478268 
L 587.289136 144.869948 
L 587.299931 144.869948 
L 587.411255 142.478268 
L 587.411929 142.478268 
L 587.479848 144.869948 
L 587.523028 142.478268 
L 587.5282 142.478268 
L 587.626255 144.869948 
L 587.639299 142.478268 
L 587.645821 142.478268 
L 587.757144 144.869948 
L 589.466799 144.869948 
L 589.476694 146.464415 
L 589.577897 144.869948 
L 589.594315 144.869948 
L 589.633671 146.464415 
L 589.705413 144.869948 
L 589.71261 144.869948 
L 589.810889 146.464415 
L 589.823708 144.869948 
L 589.84035 144.869948 
L 589.93863 146.464415 
L 589.951449 144.869948 
L 589.978211 144.869948 
L 590.089534 146.464415 
L 590.105727 146.464415 
L 590.21705 144.869948 
L 590.222897 144.869948 
L 590.334221 146.464415 
L 590.380099 146.464415 
L 590.478379 144.869948 
L 590.491198 146.464415 
L 590.635805 146.464415 
L 590.665267 144.869948 
L 590.746904 146.464415 
L 595.086936 146.464415 
L 595.198259 144.869948 
L 595.208604 144.869948 
L 595.276073 146.464415 
L 595.319703 144.869948 
L 595.330048 144.869948 
L 595.339269 146.464415 
L 595.441146 144.869948 
L 599.598338 144.869948 
L 599.709662 146.464415 
L 599.716184 146.464415 
L 599.774881 144.869948 
L 599.827282 146.464415 
L 600.452266 146.464415 
L 600.56359 148.856095 
L 601.158438 148.856095 
L 601.269761 150.450562 
L 602.002695 150.450562 
L 602.114019 152.842242 
L 603.012251 152.842242 
L 603.123574 154.436709 
L 604.434265 154.436709 
L 604.545588 156.828389 
L 604.581796 156.828389 
L 604.630599 154.436709 
L 604.692895 156.828389 
L 605.751028 156.828389 
L 605.760473 154.436709 
L 605.862126 156.828389 
L 605.882591 156.828389 
L 605.979971 154.436709 
L 605.99369 156.828389 
L 606.10164 156.828389 
L 606.212963 154.436709 
L 606.213413 154.436709 
L 606.324736 156.828389 
L 606.369265 156.828389 
L 606.466195 154.436709 
L 606.480364 156.828389 
L 606.483737 156.828389 
L 606.56335 154.436709 
L 606.594835 156.828389 
L 606.605855 156.828389 
L 606.717178 154.436709 
L 606.733146 154.436709 
L 606.844469 156.828389 
L 606.85459 156.828389 
L 606.965913 154.436709 
L 606.971535 154.436709 
L 607.073413 156.828389 
L 607.082634 154.436709 
L 607.092754 154.436709 
L 607.204077 156.828389 
L 607.214422 156.828389 
L 607.306629 154.436709 
L 607.325521 156.828389 
L 607.360604 156.828389 
L 607.42335 154.436709 
L 607.471703 156.828389 
L 607.491493 156.828389 
L 607.545468 154.436709 
L 607.602592 156.828389 
L 607.724935 156.828389 
L 607.822315 154.436709 
L 607.836033 156.828389 
L 607.872691 156.828389 
L 607.952529 154.436709 
L 607.98379 156.828389 
L 608.011227 156.828389 
L 608.021122 154.436709 
L 608.122325 156.828389 
L 608.176525 156.828389 
L 608.18642 154.436709 
L 608.287623 156.828389 
L 608.462817 156.828389 
L 608.540181 154.436709 
L 608.573915 156.828389 
L 608.721671 156.828389 
L 608.817477 154.436709 
L 608.83277 156.828389 
L 610.054627 156.828389 
L 610.133115 158.422856 
L 610.165725 156.828389 
L 610.172472 156.828389 
L 610.280647 158.422856 
L 610.28357 156.828389 
L 610.300213 156.828389 
L 610.411536 158.422856 
L 610.476306 158.422856 
L 610.555019 156.828389 
L 610.587404 158.422856 
L 616.712431 158.422856 
L 616.823754 156.828389 
L 616.853441 156.828389 
L 616.897295 158.422856 
L 616.964539 156.828389 
L 616.974884 156.828389 
L 617.032907 158.422856 
L 617.085982 156.828389 
L 619.949801 156.828389 
L 620.008948 158.422856 
L 620.060899 156.828389 
L 620.067871 156.828389 
L 620.16615 158.422856 
L 620.178969 156.828389 
L 620.185716 156.828389 
L 620.294116 158.422856 
L 620.296815 156.828389 
L 620.303786 156.828389 
L 620.41511 158.422856 
L 620.519686 158.422856 
L 620.529356 156.828389 
L 620.630784 158.422856 
L 626.831601 158.422856 
L 626.942924 156.828389 
L 626.95327 156.828389 
L 626.996899 158.422856 
L 627.064368 156.828389 
L 630.925373 156.828389 
L 630.994191 158.422856 
L 631.036471 156.828389 
L 631.189625 156.828389 
L 631.300948 158.422856 
L 631.31759 158.422856 
L 631.428914 156.828389 
L 631.453877 156.828389 
L 631.562502 158.422856 
L 631.564975 156.828389 
L 631.572622 156.828389 
L 631.683945 158.422856 
L 631.807863 158.422856 
L 631.817758 156.828389 
L 631.918961 158.422856 
L 631.944824 158.422856 
L 631.954719 156.828389 
L 632.055922 158.422856 
L 637.040055 158.422856 
L 637.151378 156.828389 
L 637.171169 156.828389 
L 637.176566 158.422856 
L 637.282267 156.828389 
L 639.5247 156.828389 
L 639.534595 154.436709 
L 639.635798 156.828389 
L 639.968643 156.828389 
L 639.976739 154.436709 
L 640.079742 156.828389 
L 640.1146 156.828389 
L 640.153957 154.436709 
L 640.225699 156.828389 
L 641.820207 156.828389 
L 641.927932 158.422856 
L 641.931306 156.828389 
L 642.065343 156.828389 
L 642.163173 158.422856 
L 642.176442 156.828389 
L 642.192859 156.828389 
L 642.304182 158.422856 
L 642.32982 158.422856 
L 642.43777 156.828389 
L 642.440919 158.422856 
L 642.457336 158.422856 
L 642.565061 156.828389 
L 642.568434 158.422856 
L 642.623759 158.422856 
L 642.722038 156.828389 
L 642.734857 158.422856 
L 642.741379 158.422856 
L 642.751499 156.828389 
L 642.852477 158.422856 
L 647.584502 158.422856 
L 647.695825 156.828389 
L 647.716066 156.828389 
L 647.74013 158.422856 
L 647.827164 156.828389 
L 651.5683 156.828389 
L 651.577296 158.422856 
L 651.679398 156.828389 
L 651.734048 156.828389 
L 651.845371 158.422856 
L 651.851443 158.422856 
L 651.962766 156.828389 
L 651.978734 156.828389 
L 652.086459 158.422856 
L 652.089832 156.828389 
L 652.096579 156.828389 
L 652.207903 158.422856 
L 658.154588 158.422856 
L 658.256465 156.828389 
L 658.265686 158.422856 
L 658.266136 158.422856 
L 658.377459 156.828389 
L 658.475289 156.828389 
L 658.484959 158.422856 
L 658.586387 156.828389 
L 661.766633 156.828389 
L 661.776753 158.422856 
L 661.877732 156.828389 
L 661.893924 156.828389 
L 662.005247 158.422856 
L 662.02144 158.422856 
L 662.060347 156.828389 
L 662.132538 158.422856 
L 662.138835 158.422856 
L 662.148731 156.828389 
L 662.249933 158.422856 
L 662.256006 158.422856 
L 662.265901 156.828389 
L 662.367104 158.422856 
L 665.057753 158.422856 
L 665.169076 156.828389 
L 665.207983 156.828389 
L 665.217204 158.422856 
L 665.319081 156.828389 
L 668.116331 156.828389 
L 668.126001 154.436709 
L 668.227429 156.828389 
L 668.281629 156.828389 
L 668.349323 154.436709 
L 668.392727 156.828389 
L 668.422863 156.828389 
L 668.490782 154.436709 
L 668.533962 156.828389 
L 668.551728 156.828389 
L 668.663052 154.436709 
L 668.6662 154.436709 
L 668.777523 156.828389 
L 668.802262 156.828389 
L 668.913585 154.436709 
L 668.924155 154.436709 
L 669.011865 156.828389 
L 669.035254 154.436709 
L 669.089453 154.436709 
L 669.177163 156.828389 
L 669.200552 154.436709 
L 669.629427 154.436709 
L 669.638873 156.828389 
L 669.740526 154.436709 
L 671.652362 154.436709 
L 671.763685 156.828389 
L 671.769307 156.828389 
L 671.81856 154.436709 
L 671.880406 156.828389 
L 677.531128 156.828389 
L 677.541024 158.422856 
L 677.642227 156.828389 
L 678.028372 156.828389 
L 678.038043 158.422856 
L 678.139471 156.828389 
L 679.407656 156.828389 
L 679.518979 154.436709 
L 679.519429 154.436709 
L 679.630752 156.828389 
L 679.650993 156.828389 
L 679.762316 154.436709 
L 679.816066 154.436709 
L 679.85025 156.828389 
L 679.927164 154.436709 
L 682.542249 154.436709 
L 682.653572 156.828389 
L 682.660094 156.828389 
L 682.766919 154.436709 
L 682.771192 156.828389 
L 682.79638 156.828389 
L 682.874869 154.436709 
L 682.907479 156.828389 
L 682.933117 156.828389 
L 683.011156 154.436709 
L 683.044215 156.828389 
L 683.11888 156.828389 
L 683.128101 154.436709 
L 683.229979 156.828389 
L 688.979655 156.828389 
L 688.989326 154.436709 
L 689.090754 156.828389 
L 689.093228 156.828389 
L 689.204551 154.436709 
L 691.308448 154.436709 
L 691.406052 152.842242 
L 691.419546 154.436709 
L 691.502757 154.436709 
L 691.605535 152.842242 
L 691.613856 154.436709 
L 691.624651 154.436709 
L 691.735974 152.842242 
L 691.736874 152.842242 
L 691.830655 154.436709 
L 691.847972 152.842242 
L 691.867763 152.842242 
L 691.945576 154.436709 
L 691.978861 152.842242 
L 691.989431 152.842242 
L 692.06612 154.436709 
L 692.100529 152.842242 
L 692.114923 152.842242 
L 692.226246 154.436709 
L 692.232093 154.436709 
L 692.300012 152.842242 
L 692.343192 154.436709 
L 696.369719 154.436709 
L 696.399181 156.828389 
L 696.480818 154.436709 
L 697.861676 154.436709 
L 697.871796 156.828389 
L 697.972774 154.436709 
L 698.545358 154.436709 
L 698.555253 156.828389 
L 698.656456 154.436709 
L 699.133235 154.436709 
L 699.142905 156.828389 
L 699.244333 154.436709 
L 700.208235 154.436709 
L 700.314385 152.842242 
L 700.319333 154.436709 
L 700.392199 154.436709 
L 700.503522 152.842242 
L 700.504197 152.842242 
L 700.61552 154.436709 
L 700.616645 154.436709 
L 700.727968 152.842242 
L 703.495756 152.842242 
L 703.607079 154.436709 
L 703.691415 154.436709 
L 703.739993 152.842242 
L 703.802514 154.436709 
L 703.866834 154.436709 
L 703.905516 152.842242 
L 703.977932 154.436709 
L 709.97162 154.436709 
L 710.082944 152.842242 
L 710.092839 152.842242 
L 710.12185 154.436709 
L 710.203937 152.842242 
L 713.495732 152.842242 
L 713.607055 154.436709 
L 713.612452 154.436709 
L 713.710057 152.842242 
L 713.723551 154.436709 
L 715.611773 154.436709 
L 715.723096 156.828389 
L 715.738164 156.828389 
L 715.844989 154.436709 
L 715.849262 156.828389 
L 715.854885 156.828389 
L 715.966208 154.436709 
L 715.97183 154.436709 
L 716.083154 156.828389 
L 716.088776 156.828389 
L 716.157144 154.436709 
L 716.199874 156.828389 
L 716.254524 156.828389 
L 716.264419 154.436709 
L 716.365622 156.828389 
L 721.210095 156.828389 
L 721.268343 154.436709 
L 721.321193 156.828389 
L 721.341434 156.828389 
L 721.452757 154.436709 
L 721.453432 154.436709 
L 721.52135 156.828389 
L 721.56453 154.436709 
L 721.56498 154.436709 
L 721.652239 156.828389 
L 721.676078 154.436709 
L 721.686199 154.436709 
L 721.797522 156.828389 
L 721.800221 156.828389 
L 721.905472 154.436709 
L 721.911319 156.828389 
L 721.915592 156.828389 
L 722.017245 154.436709 
L 722.02669 156.828389 
L 722.02714 156.828389 
L 722.129467 154.436709 
L 722.138238 156.828389 
L 722.138913 156.828389 
L 722.250236 154.436709 
L 722.497172 154.436709 
L 722.608495 156.828389 
L 722.611194 156.828389 
L 722.722517 154.436709 
L 723.525169 154.436709 
L 723.636492 156.828389 
L 723.66168 156.828389 
L 723.710258 154.436709 
L 723.772778 156.828389 
L 726.122036 156.828389 
L 726.151497 158.422856 
L 726.233134 156.828389 
L 726.29678 156.828389 
L 726.39416 158.422856 
L 726.407878 156.828389 
L 726.452632 156.828389 
L 726.520776 158.422856 
L 726.563731 156.828389 
L 726.579923 156.828389 
L 726.677753 158.422856 
L 726.691022 156.828389 
L 726.765237 156.828389 
L 726.87656 158.422856 
L 726.892303 158.422856 
L 726.979787 156.828389 
L 727.003401 158.422856 
L 727.009024 158.422856 
L 727.120347 156.828389 
L 727.126644 156.828389 
L 727.214128 158.422856 
L 727.237742 156.828389 
L 727.272601 156.828389 
L 727.340745 158.422856 
L 727.3837 156.828389 
L 727.418783 156.828389 
L 727.467586 158.422856 
L 727.529882 156.828389 
L 727.545174 156.828389 
L 727.652899 158.422856 
L 727.656273 156.828389 
L 727.682136 156.828389 
L 727.779291 158.422856 
L 727.793234 156.828389 
L 727.808752 156.828389 
L 727.896686 158.422856 
L 727.91985 156.828389 
L 727.984845 156.828389 
L 728.09167 158.422856 
L 728.095943 156.828389 
L 728.120907 156.828389 
L 728.131027 158.422856 
L 728.232005 156.828389 
L 730.684265 156.828389 
L 730.795588 154.436709 
L 732.083339 154.436709 
L 732.194663 152.842242 
L 732.305986 154.436709 
L 732.306661 154.436709 
L 732.417984 152.842242 
L 735.241321 152.842242 
L 735.352644 154.436709 
L 735.358267 154.436709 
L 735.46959 152.842242 
L 735.53391 152.842242 
L 735.64141 154.436709 
L 735.645008 152.842242 
L 735.650856 152.842242 
L 735.74891 154.436709 
L 735.761954 152.842242 
L 735.768476 152.842242 
L 735.866081 154.436709 
L 735.879574 152.842242 
L 735.885422 152.842242 
L 735.993147 154.436709 
L 735.99652 152.842242 
L 736.002817 152.842242 
L 736.11414 154.436709 
L 736.198251 154.436709 
L 736.309574 152.842242 
L 736.315422 152.842242 
L 736.426745 154.436709 
L 736.432367 154.436709 
L 736.543691 152.842242 
L 736.548638 152.842242 
L 736.659962 154.436709 
L 736.704491 154.436709 
L 736.811991 152.842242 
L 736.815589 154.436709 
L 736.831557 154.436709 
L 736.939057 152.842242 
L 736.942655 154.436709 
L 736.987184 154.436709 
L 737.055778 152.842242 
L 737.098283 154.436709 
L 737.11425 154.436709 
L 737.225574 152.842242 
L 737.231421 152.842242 
L 737.342744 154.436709 
L 737.367932 154.436709 
L 737.479256 152.842242 
L 737.494324 152.842242 
L 737.605647 154.436709 
L 737.610819 154.436709 
L 737.718319 152.842242 
L 737.721918 154.436709 
L 737.757676 154.436709 
L 737.868999 152.842242 
L 737.884292 152.842242 
L 737.981897 154.436709 
L 737.995391 152.842242 
L 738.010684 152.842242 
L 738.099067 154.436709 
L 738.121782 152.842242 
L 738.128304 152.842242 
L 738.239627 154.436709 
L 738.304172 154.436709 
L 738.411447 152.842242 
L 738.41527 154.436709 
L 738.420668 154.436709 
L 738.531991 152.842242 
L 738.538063 152.842242 
L 738.649387 154.436709 
L 738.655234 154.436709 
L 738.766557 152.842242 
L 738.772179 152.842242 
L 738.879455 154.436709 
L 738.883278 152.842242 
L 738.88935 152.842242 
L 738.9964 154.436709 
L 739.000448 152.842242 
L 739.006521 152.842242 
L 739.117844 154.436709 
L 739.161698 154.436709 
L 739.273022 152.842242 
L 739.288989 152.842242 
L 739.396039 154.436709 
L 739.400088 152.842242 
L 739.40571 152.842242 
L 739.513435 154.436709 
L 739.516808 152.842242 
L 739.562462 152.842242 
L 739.673785 154.436709 
L 739.707969 154.436709 
L 739.806024 152.842242 
L 739.819068 154.436709 
L 739.874392 154.436709 
L 739.981442 152.842242 
L 739.98549 154.436709 
L 740.010904 154.436709 
L 740.117954 152.842242 
L 740.122002 154.436709 
L 740.195992 154.436709 
L 740.307316 152.842242 
L 740.313388 152.842242 
L 740.424711 154.436709 
L 740.430109 154.436709 
L 740.541432 152.842242 
L 740.547279 152.842242 
L 740.658602 154.436709 
L 740.673895 154.436709 
L 740.785219 152.842242 
L 740.790841 152.842242 
L 740.902164 154.436709 
L 740.904638 154.436709 
L 741.015961 152.842242 
L 741.026756 152.842242 
L 741.036427 154.436709 
L 741.137855 152.842242 
L 742.382876 152.842242 
L 742.479131 150.450562 
L 742.493974 152.842242 
L 742.504094 152.842242 
L 742.615418 150.450562 
L 742.659722 150.450562 
L 742.679513 152.842242 
L 742.77082 150.450562 
L 742.808378 150.450562 
L 742.81535 152.842242 
L 742.919476 150.450562 
L 745.575941 150.450562 
L 745.687264 152.842242 
L 745.692887 152.842242 
L 745.790716 150.450562 
L 745.803985 152.842242 
L 745.819953 152.842242 
L 745.931276 150.450562 
L 745.936898 150.450562 
L 746.034728 152.842242 
L 746.047997 150.450562 
L 746.053844 150.450562 
L 746.165167 152.842242 
L 751.801496 152.842242 
L 751.91282 150.450562 
L 751.92339 150.450562 
L 751.965895 152.842242 
L 752.034488 150.450562 
L 754.340341 150.450562 
L 754.346413 148.856095 
L 754.451439 150.450562 
L 754.529028 150.450562 
L 754.626183 148.856095 
L 754.640127 150.450562 
L 754.670038 150.450562 
L 754.755273 148.856095 
L 754.781136 150.450562 
L 754.8052 150.450562 
L 754.908652 148.856095 
L 754.916298 150.450562 
L 754.928218 150.450562 
L 755.006706 148.856095 
L 755.039316 150.450562 
L 757.161654 150.450562 
L 757.171325 152.842242 
L 757.272753 150.450562 
L 757.395995 150.450562 
L 757.405891 152.842242 
L 757.507094 150.450562 
L 757.523061 150.450562 
L 757.630336 152.842242 
L 757.63416 150.450562 
L 757.649902 150.450562 
L 757.747732 152.842242 
L 757.761001 150.450562 
L 757.854782 150.450562 
L 757.932821 152.842242 
L 757.96588 150.450562 
L 757.981623 150.450562 
L 758.089123 152.842242 
L 758.092721 150.450562 
L 758.098569 150.450562 
L 758.196398 152.842242 
L 758.209667 150.450562 
L 758.2452 150.450562 
L 758.356524 152.842242 
L 758.381262 152.842242 
L 758.469196 150.450562 
L 758.492361 152.842242 
L 758.527894 152.842242 
L 758.635169 150.450562 
L 758.638992 152.842242 
L 758.664406 152.842242 
L 758.77213 150.450562 
L 758.775504 152.842242 
L 758.801367 152.842242 
L 758.91269 150.450562 
L 758.928208 150.450562 
L 759.039531 152.842242 
L 759.064944 152.842242 
L 759.162324 150.450562 
L 759.176043 152.842242 
L 759.260378 152.842242 
L 759.328297 150.450562 
L 759.371477 152.842242 
L 759.416456 152.842242 
L 759.504165 150.450562 
L 759.527554 152.842242 
L 759.854777 152.842242 
L 759.864673 150.450562 
L 759.965875 152.842242 
L 759.972173 152.842242 
L 759.982068 150.450562 
L 760.083271 152.842242 
L 762.245416 152.842242 
L 762.356739 150.450562 
L 762.386425 150.450562 
L 762.392722 152.842242 
L 762.497523 150.450562 
L 765.051211 150.450562 
L 765.058633 148.856095 
L 765.162309 150.450562 
L 765.223031 150.450562 
L 765.303769 148.856095 
L 765.334129 150.450562 
L 765.351896 150.450562 
L 765.463219 148.856095 
L 765.479187 148.856095 
L 765.59051 150.450562 
L 767.381578 150.450562 
L 767.439601 152.842242 
L 767.492676 150.450562 
L 767.498298 150.450562 
L 767.556996 152.842242 
L 767.609397 150.450562 
L 767.673492 150.450562 
L 767.771321 152.842242 
L 767.78459 150.450562 
L 767.810228 150.450562 
L 767.921551 152.842242 
L 767.927624 152.842242 
L 768.038947 150.450562 
L 768.044569 150.450562 
L 768.151844 152.842242 
L 768.155668 150.450562 
L 768.181081 150.450562 
L 768.292404 152.842242 
L 768.307697 152.842242 
L 768.415422 150.450562 
L 768.418795 152.842242 
L 768.425092 152.842242 
L 768.532817 150.450562 
L 768.536191 152.842242 
L 768.571724 152.842242 
L 768.678549 150.450562 
L 768.682823 152.842242 
L 769.039956 152.842242 
L 769.050077 150.450562 
L 769.151055 152.842242 
L 769.245061 152.842242 
L 769.254732 150.450562 
L 769.356159 152.842242 
L 772.857332 152.842242 
L 772.964607 150.450562 
L 772.96843 152.842242 
L 772.974052 152.842242 
L 773.085376 150.450562 
L 775.653906 150.450562 
L 775.663802 148.856095 
L 775.765005 150.450562 
L 775.766129 150.450562 
L 775.877452 148.856095 
L 775.884424 148.856095 
L 775.995747 150.450562 
L 778.018007 150.450562 
L 778.086375 152.842242 
L 778.129105 150.450562 
L 778.213441 150.450562 
L 778.290805 152.842242 
L 778.32454 150.450562 
L 778.329937 150.450562 
L 778.44126 152.842242 
L 778.446883 152.842242 
L 778.544487 150.450562 
L 778.557981 152.842242 
L 778.564053 152.842242 
L 778.675376 150.450562 
L 778.681449 150.450562 
L 778.792772 152.842242 
L 778.798619 152.842242 
L 778.857092 150.450562 
L 778.909718 152.842242 
L 778.983933 152.842242 
L 779.032735 150.450562 
L 779.095031 152.842242 
L 779.23784 152.842242 
L 779.24751 150.450562 
L 779.348938 152.842242 
L 779.549545 152.842242 
L 779.559216 150.450562 
L 779.660643 152.842242 
L 783.121559 152.842242 
L 783.232882 150.450562 
L 783.286183 150.450562 
L 783.296078 152.842242 
L 783.397281 150.450562 
L 785.287077 150.450562 
L 785.295398 148.856095 
L 785.398176 150.450562 
L 785.403798 150.450562 
L 785.487009 148.856095 
L 785.514896 150.450562 
L 785.533338 150.450562 
L 785.642637 148.856095 
L 785.644436 150.450562 
L 785.652308 150.450562 
L 785.747888 148.856095 
L 785.763406 150.450562 
L 785.788369 150.450562 
L 785.899693 148.856095 
L 785.918359 148.856095 
L 786.008542 150.450562 
L 786.029457 148.856095 
L 786.072862 148.856095 
L 786.184185 150.450562 
L 786.212072 150.450562 
L 786.315299 148.856095 
L 786.323171 150.450562 
L 786.32452 150.450562 
L 786.435843 148.856095 
L 786.49679 148.856095 
L 786.608113 150.450562 
L 786.658715 150.450562 
L 786.66861 148.856095 
L 786.769813 150.450562 
L 789.836712 150.450562 
L 789.846832 152.842242 
L 789.94781 150.450562 
L 790.477664 150.450562 
L 790.487784 152.842242 
L 790.588762 150.450562 
L 790.968386 150.450562 
L 790.978056 152.842242 
L 791.079484 150.450562 
L 791.768564 150.450562 
L 791.778009 152.842242 
L 791.879662 150.450562 
L 792.139416 150.450562 
L 792.244892 152.842242 
L 792.250515 150.450562 
L 792.282225 150.450562 
L 792.301566 152.842242 
L 792.393323 150.450562 
L 792.405018 150.450562 
L 792.414913 152.842242 
L 792.516116 150.450562 
L 792.57144 150.450562 
L 792.666796 152.842242 
L 792.682539 150.450562 
L 792.710426 150.450562 
L 792.821749 152.842242 
L 792.832319 152.842242 
L 792.943642 150.450562 
L 793.004814 150.450562 
L 793.108491 152.842242 
L 793.115912 150.450562 
L 793.1429 150.450562 
L 793.254223 152.842242 
L 793.273564 152.842242 
L 793.384887 150.450562 
L 793.413224 150.450562 
L 793.524547 152.842242 
L 793.524772 152.842242 
L 793.636095 150.450562 
L 795.010431 150.450562 
L 795.079025 148.856095 
L 795.12153 150.450562 
L 795.17438 150.450562 
L 795.285704 148.856095 
L 795.291101 148.856095 
L 795.402424 150.450562 
L 795.407372 150.450562 
L 795.518695 148.856095 
L 795.593136 148.856095 
L 795.695913 150.450562 
L 795.704234 148.856095 
L 797.356541 148.856095 
L 797.467864 150.450562 
L 797.512843 150.450562 
L 797.598303 148.856095 
L 797.623941 150.450562 
L 804.27275 150.450562 
L 804.358435 148.856095 
L 804.383848 150.450562 
L 804.388346 150.450562 
L 804.499669 148.856095 
L 804.576134 148.856095 
L 804.669915 150.450562 
L 804.687232 148.856095 
L 806.83116 148.856095 
L 806.839482 146.464415 
L 806.942259 148.856095 
L 806.950355 148.856095 
L 807.010177 146.464415 
L 807.061453 148.856095 
L 807.103959 148.856095 
L 807.203137 146.464415 
L 807.215057 148.856095 
L 807.227651 148.856095 
L 807.333577 146.464415 
L 807.338749 148.856095 
L 807.359215 148.856095 
L 807.462217 146.464415 
L 807.470313 148.856095 
L 807.487405 148.856095 
L 807.566119 146.464415 
L 807.598504 148.856095 
L 807.600753 148.856095 
L 807.695658 146.464415 
L 807.711851 148.856095 
L 807.738838 148.856095 
L 807.747609 146.464415 
L 807.849937 148.856095 
L 811.699247 148.856095 
L 811.785832 150.450562 
L 811.810345 148.856095 
L 812.285549 148.856095 
L 812.293871 150.450562 
L 812.396648 148.856095 
L 814.729038 148.856095 
L 814.840362 146.464415 
L 814.90918 146.464415 
L 814.930545 148.856095 
L 815.020278 146.464415 
L 815.025451 146.464415 
L 815.034221 148.856095 
L 815.136549 146.464415 
L 815.422616 146.464415 
L 815.517522 144.869948 
L 815.533714 146.464415 
L 815.595111 146.464415 
L 815.690017 144.869948 
L 815.706209 146.464415 
L 815.715655 146.464415 
L 815.826978 144.869948 
L 815.840472 144.869948 
L 815.947747 146.464415 
L 815.95157 144.869948 
L 816.017914 144.869948 
L 816.098652 146.464415 
L 816.129012 144.869948 
L 816.444091 144.869948 
L 816.444091 144.869948 
" style="fill:none;stroke:#1f77b4;stroke-linecap:square;stroke-width:1.5;"/>
   </g>
   <g id="patch_3">
    <path d="M 44.57 345.771773 
L 44.57 26.88 
" style="fill:none;stroke:#000000;stroke-linecap:square;stroke-linejoin:miter;stroke-width:0.8;"/>
   </g>
   <g id="patch_4">
    <path d="M 853.2 345.771773 
L 853.2 26.88 
" style="fill:none;stroke:#000000;stroke-linecap:square;stroke-linejoin:miter;stroke-width:0.8;"/>
   </g>
   <g id="patch_5">
    <path d="M 44.57 345.771773 
L 853.2 345.771773 
" style="fill:none;stroke:#000000;stroke-linecap:square;stroke-linejoin:miter;stroke-width:0.8;"/>
   </g>
   <g id="patch_6">
    <path d="M 44.57 26.88 
L 853.2 26.88 
" style="fill:none;stroke:#000000;stroke-linecap:square;stroke-linejoin:miter;stroke-width:0.8;"/>
   </g>
   <g id="text_19">
    <!-- Temperature Data Plot -->
    <g transform="translate(381.43375 20.88)scale(0.12 -0.12)">
     <defs>
      <path d="M 1259 4147 
L 1259 519 
L 2022 519 
Q 2988 519 3436 956 
Q 3884 1394 3884 2338 
Q 3884 3275 3436 3711 
Q 2988 4147 2022 4147 
L 1259 4147 
z
M 628 4666 
L 1925 4666 
Q 3281 4666 3915 4102 
Q 4550 3538 4550 2338 
Q 4550 1131 3912 565 
Q 3275 0 1925 0 
L 628 0 
L 628 4666 
z
" id="DejaVuSans-44" transform="scale(0.015625)"/>
      <path d="M 1259 4147 
L 1259 2394 
L 2053 2394 
Q 2494 2394 2734 2622 
Q 2975 2850 2975 3272 
Q 2975 3691 2734 3919 
Q 2494 4147 2053 4147 
L 1259 4147 
z
M 628 4666 
L 2053 4666 
Q 2838 4666 3239 4311 
Q 3641 3956 3641 3272 
Q 3641 2581 3239 2228 
Q 2838 1875 2053 1875 
L 1259 1875 
L 1259 0 
L 628 0 
L 628 4666 
z
" id="DejaVuSans-50" transform="scale(0.015625)"/>
      <path d="M 603 4863 
L 1178 4863 
L 1178 0 
L 603 0 
L 603 4863 
z
" id="DejaVuSans-6c" transform="scale(0.015625)"/>
      <path d="M 1959 3097 
Q 1497 3097 1228 2736 
Q 959 2375 959 1747 
Q 959 1119 1226 758 
Q 1494 397 1959 397 
Q 2419 397 2687 759 
Q 2956 1122 2956 1747 
Q 2956 2369 2687 2733 
Q 2419 3097 1959 3097 
z
M 1959 3584 
Q 2709 3584 3137 3096 
Q 3566 2609 3566 1747 
Q 3566 888 3137 398 
Q 2709 -91 1959 -91 
Q 1206 -91 779 398 
Q 353 888 353 1747 
Q 353 2609 779 3096 
Q 1206 3584 1959 3584 
z
" id="DejaVuSans-6f" transform="scale(0.015625)"/>
     </defs>
     <use xlink:href="#DejaVuSans-54"/>
     <use x="44.083984" xlink:href="#DejaVuSans-65"/>
     <use x="105.607422" xlink:href="#DejaVuSans-6d"/>
     <use x="203.019531" xlink:href="#DejaVuSans-70"/>
     <use x="266.496094" xlink:href="#DejaVuSans-65"/>
     <use x="328.019531" xlink:href="#DejaVuSans-72"/>
     <use x="369.132812" xlink:href="#DejaVuSans-61"/>
     <use x="430.412109" xlink:href="#DejaVuSans-74"/>
     <use x="469.621094" xlink:href="#DejaVuSans-75"/>
     <use x="533" xlink:href="#DejaVuSans-72"/>
     <use x="571.863281" xlink:href="#DejaVuSans-65"/>
     <use x="633.386719" xlink:href="#DejaVuSans-20"/>
     <use x="665.173828" xlink:href="#DejaVuSans-44"/>
     <use x="742.175781" xlink:href="#DejaVuSans-61"/>
     <use x="803.455078" xlink:href="#DejaVuSans-74"/>
     <use x="842.664062" xlink:href="#DejaVuSans-61"/>
     <use x="903.943359" xlink:href="#DejaVuSans-20"/>
     <use x="935.730469" xlink:href="#DejaVuSans-50"/>
     <use x="996.033203" xlink:href="#DejaVuSans-6c"/>
     <use x="1023.816406" xlink:href="#DejaVuSans-6f"/>
     <use x="1084.998047" xlink:href="#DejaVuSans-74"/>
    </g>
   </g>
   <g id="legend_1">
    <g id="patch_7">
     <path d="M 774.45625 49.558125 
L 846.2 49.558125 
Q 848.2 49.558125 848.2 47.558125 
L 848.2 33.88 
Q 848.2 31.88 846.2 31.88 
L 774.45625 31.88 
Q 772.45625 31.88 772.45625 33.88 
L 772.45625 47.558125 
Q 772.45625 49.558125 774.45625 49.558125 
z
" style="fill:#ffffff;opacity:0.8;stroke:#cccccc;stroke-linejoin:miter;"/>
    </g>
    <g id="line2d_18">
     <path d="M 776.45625 39.978438 
L 796.45625 39.978438 
" style="fill:none;stroke:#1f77b4;stroke-linecap:square;stroke-width:1.5;"/>
    </g>
    <g id="line2d_19"/>
    <g id="text_20">
     <!-- T[degC] -->
     <g transform="translate(804.45625 43.478438)scale(0.1 -0.1)">
      <use xlink:href="#DejaVuSans-54"/>
      <use x="61.083984" xlink:href="#DejaVuSans-5b"/>
      <use x="100.097656" xlink:href="#DejaVuSans-64"/>
      <use x="163.574219" xlink:href="#DejaVuSans-65"/>
      <use x="225.097656" xlink:href="#DejaVuSans-67"/>
      <use x="288.574219" xlink:href="#DejaVuSans-43"/>
      <use x="358.398438" xlink:href="#DejaVuSans-5d"/>
     </g>
    </g>
   </g>
  </g>
 </g>
 <defs>
  <clipPath id="pb65efe388c">
   <rect height="318.891773" width="808.63" x="44.57" y="26.88"/>
  </clipPath>
 </defs>
</svg>
